
<svg viewBox="0 0 1013 610" fill="none" xmlns="http://www.w3.org/2000/svg"><path d="M795.99 423.61h-9.93v-79.79l-64.659-64.66H602.6l-26.24 26.23v58.94l-35.85 35.85h-78.77l-22.62-22.62V213.57l-22.21-22.2H311.99l-12.52 12.52v26.58l-14.55 14.54h-43.44v-9.92h39.33l8.74-8.73v-26.58l18.33-18.33h113.14l28.02 28.02v163.98l16.81 16.81h70.551l30.039-30.04v-58.94l32.05-32.04h127.02l70.48 70.47v83.9Z" stroke="#000" stroke-width=".5" stroke-miterlimit="10"/><path d="M241.48 240.05h41.39l11.64-11.64v-26.57l15.43-15.43h109.03l25.11 25.11V375.5l19.71 19.72h74.661l32.95-32.95v-58.93l29.139-29.14H723.461l67.57 67.56v81.85" stroke="#000" stroke-width=".5" stroke-miterlimit="10"/><path d="M385.9,191.4H312l-12.5,12.5v26.6L284.9,245h-43.4v-9.9h39.3l8.7-8.7v-26.6l18.3-18.3H385M439.12 314.73V213.57l-22.21-22.2H311.99l-12.52 12.52v26.58l-14.55 14.54h-43.44v-9.92h39.33l8.74-8.73v-26.58l18.33-18.33h113.14l28.02 28.02v105.78" fill="url(#a)"/><path d="M439.12 314.73V213.57l-22.21-22.2H311.99l-12.52 12.52v26.58l-14.55 14.54h-43.44v-9.92h39.33l8.74-8.73v-26.58l18.33-18.33h113.14l28.02 28.02v105.78" stroke="#000" stroke-width=".5"/><path d="M192.9 44.18h712.91l13.08 10.88V163.8l28.15 23.42v297.6l-30.28 25.19v21.93H185.32V50.49c0-3.48 3.4-6.31 7.58-6.31Z" stroke="#000" stroke-width=".5" stroke-miterlimit="10"/><path d="M891.498 438.29h-304.76v54.81h304.76v-54.81Z" fill="#fff" class="Q1Q2" stroke="#000" stroke-width=".5" stroke-miterlimit="10"/><path d="M891.498 423.95h-304.76v83.5h304.76v-83.5ZM872.132 218.48h-33.91c-6.142 0-11.12 4.979-11.12 11.12v.01c0 6.141 4.978 11.12 11.12 11.12h33.91c6.141 0 11.12-4.979 11.12-11.12v-.01c0-6.141-4.979-11.12-11.12-11.12Z" stroke="#000" stroke-width=".5" stroke-miterlimit="10"/><path d="M844.83 233.59a3.99 3.99 0 1 0-.002-7.982 3.99 3.99 0 0 0 .002 7.982ZM865.521 233.59a3.99 3.99 0 1 0 0-7.98 3.99 3.99 0 0 0 0 7.98ZM222.89 93.68c6.843 0 12.39-5.547 12.39-12.39 0-6.843-5.547-12.39-12.39-12.39-6.843 0-12.39 5.547-12.39 12.39 0 6.843 5.547 12.39 12.39 12.39ZM872.132 247.39h-33.91c-6.142 0-11.12 4.979-11.12 11.12v.01c0 6.142 4.978 11.12 11.12 11.12h33.91c6.141 0 11.12-4.978 11.12-11.12v-.01c0-6.141-4.979-11.12-11.12-11.12Z" stroke="#000" stroke-width=".5" stroke-miterlimit="10"/><path d="M844.83 262.5a3.99 3.99 0 1 0 0-7.98 3.99 3.99 0 0 0 0 7.98ZM865.521 262.5a3.99 3.99 0 1 0 .001-7.979 3.99 3.99 0 0 0-.001 7.979ZM872.132 276.3h-33.91c-6.142 0-11.12 4.978-11.12 11.12v.01c0 6.141 4.978 11.12 11.12 11.12h33.91c6.141 0 11.12-4.979 11.12-11.12v-.01c0-6.142-4.979-11.12-11.12-11.12Z" stroke="#000" stroke-width=".5" stroke-miterlimit="10"/><path d="M844.83 291.41a3.99 3.99 0 1 0 0-7.98 3.99 3.99 0 0 0 0 7.98ZM865.521 291.41a3.99 3.99 0 1 0 .001-7.979 3.99 3.99 0 0 0-.001 7.979ZM295.729 276.3h-33.91c-6.141 0-11.12 4.978-11.12 11.12v.01c0 6.141 4.979 11.12 11.12 11.12h33.91c6.142 0 11.12-4.979 11.12-11.12v-.01c0-6.142-4.978-11.12-11.12-11.12Z" stroke="#000" stroke-width=".5" stroke-miterlimit="10"/><path d="M268.42 291.41a3.99 3.99 0 1 0 0-7.98 3.99 3.99 0 0 0 0 7.98ZM289.119 291.41a3.99 3.99 0 1 0 .001-7.979 3.99 3.99 0 0 0-.001 7.979ZM403.641 502.35a8.75 8.75 0 1 0 0-17.5 8.75 8.75 0 0 0 0 17.5ZM428.75 502.35a8.75 8.75 0 1 0 0-17.5 8.75 8.75 0 0 0 0 17.5ZM509.059 502.35a8.75 8.75 0 1 0 0-17.5 8.75 8.75 0 0 0 0 17.5ZM924.051 481.94a8.75 8.75 0 1 0-.001-17.501 8.75 8.75 0 0 0 .001 17.501ZM924.051 201.43a8.75 8.75 0 1 0 0-17.5 8.75 8.75 0 0 0 0 17.5ZM924.051 227.64a8.75 8.75 0 1 0 0-17.5 8.75 8.75 0 0 0 0 17.5ZM220.821 513.53c11.559 0 20.93-9.371 20.93-20.93s-9.371-20.93-20.93-20.93c-11.56 0-20.93 9.371-20.93 20.93s9.37 20.93 20.93 20.93Z" stroke="#000" stroke-width=".5" stroke-miterlimit="10"/><path d="M759.528 183.13c0 .36-.06.69-.18 1-.12.31-.28.59-.49.83a2.31 2.31 0 0 1-1.77.78 2.27 2.27 0 0 1-1.77-.78c-.21-.23-.37-.51-.49-.83-.12-.32-.17-.65-.18-1.01v-5.26h.61v5.26c.01.27.06.52.14.77.08.25.2.46.36.65.15.19.34.34.56.45.22.11.48.17.77.17.29 0 .54-.06.76-.17.22-.11.41-.27.56-.46.15-.19.27-.41.35-.65.08-.25.12-.5.13-.77v-5.26h.62v5.26l.02.02ZM765.469 183.03c-.12-.19-.28-.35-.47-.48-.19-.13-.4-.24-.63-.32-.23-.08-.45-.17-.67-.23-.26-.08-.53-.18-.8-.29-.27-.11-.52-.25-.74-.41-.24-.17-.44-.38-.59-.62-.15-.24-.23-.54-.23-.89 0-.32.07-.61.22-.86s.33-.46.56-.63c.23-.17.49-.29.78-.38.29-.09.58-.13.88-.13.33 0 .64.05.94.16.3.11.56.26.79.46.22.2.4.43.54.71.14.28.21.59.22.93h-.65a2.2 2.2 0 0 0-.19-.69c-.1-.21-.22-.39-.38-.54-.16-.15-.34-.26-.56-.35-.21-.08-.45-.12-.71-.12-.22 0-.43.03-.64.09-.21.06-.4.15-.57.26-.17.12-.31.27-.41.45-.1.18-.16.39-.16.63 0 .26.06.48.18.66.12.18.27.33.46.45.19.13.4.23.62.32.22.09.44.16.65.22.28.09.57.19.85.31s.55.27.78.46c.23.17.41.39.56.64.14.25.22.55.22.89 0 .34-.07.64-.22.89s-.34.46-.57.63c-.24.17-.51.29-.8.38-.3.09-.6.13-.91.13-.36 0-.72-.06-1.06-.17a2.69 2.69 0 0 1-.89-.51c-.23-.19-.41-.42-.54-.69-.13-.26-.2-.56-.22-.9h.64c.03.28.11.53.22.74.11.21.27.39.45.53.18.15.39.25.63.33.24.07.49.11.76.11.23 0 .45-.03.67-.08.22-.06.42-.14.59-.26.17-.12.31-.27.42-.45.11-.18.16-.4.16-.66 0-.27-.06-.5-.18-.69v-.03ZM770.52 178.44v7.2h-.62v-7.2h-2.47v-.56h5.58v.56H770.52ZM775.189 182.39v3.25h-.63v-7.76h2.19c.34 0 .66.06.96.16.3.1.57.25.79.44.22.19.4.43.53.71.13.28.19.6.19.96 0 .26-.04.5-.11.71-.08.21-.18.41-.32.58-.13.17-.3.32-.48.45-.19.13-.39.24-.62.34l1.77 3.33v.07h-.67l-1.7-3.25h-1.92l.02.01Zm1.69-.55c.24 0 .47-.05.67-.13.21-.09.39-.2.55-.35.15-.15.27-.32.36-.52.09-.2.13-.43.13-.68 0-.27-.05-.51-.14-.73-.09-.21-.22-.39-.39-.54-.16-.15-.36-.26-.58-.34-.23-.08-.47-.12-.73-.12h-1.56v3.42h1.69v-.01ZM781.9 183.47l-.69 2.16h-.64l2.52-7.76h.58l2.5 7.76h-.64l-.69-2.16h-2.94Zm2.77-.58-1.29-4.06-1.3 4.06h2.59ZM261.872 89.95h1.11l-3.43 5.6 3.53 5.77h-1.09l-2.99-5.02-2.99 5.02h-1.09l3.54-5.77-3.43-5.6h1.1l2.86 4.85 2.88-4.85ZM963.841 141.77h1.11l-3.43 5.6 3.53 5.77h-1.09l-2.99-5.02-2.99 5.02h-1.09l3.54-5.77-3.43-5.6h1.1l2.86 4.85 2.88-4.85ZM524.141 202.34l4.75-12.35h.88l-4.74 12.35h-.89ZM533.742 202.34l4.75-12.35h.88l-4.74 12.35h-.89ZM543.34 202.34l4.75-12.35h.88l-4.74 12.35h-.89ZM552.949 202.34l4.75-12.35h.88l-4.74 12.35h-.89ZM631.641 164.09v-.41l3.54-1.56v.52l-2.8 1.17-.21.08.21.08 2.8 1.16v.53l-3.54-1.57ZM636.719 164.09v-.41l3.54-1.56v.52l-2.8 1.17-.21.08.21.08 2.8 1.16v.53l-3.54-1.57ZM650.522 165.18c-.08.3-.19.56-.35.78-.15.22-.35.4-.58.53-.23.13-.52.2-.85.2-.27 0-.51-.04-.72-.13-.21-.09-.39-.21-.55-.38-.22-.23-.39-.52-.49-.86-.1-.34-.15-.7-.15-1.09v-1.26c0-.34.04-.66.12-.96.08-.3.19-.57.35-.79.15-.22.35-.4.59-.52.24-.13.52-.19.84-.19.27 0 .51.05.73.14.21.09.39.22.54.38.21.22.37.51.47.85.1.34.15.71.16 1.1v1.26c0 .34-.04.66-.11.95v-.01Zm-.46-3a2.35 2.35 0 0 0-.16-.51c-.07-.15-.16-.28-.27-.39-.11-.11-.24-.19-.38-.25-.15-.06-.32-.09-.51-.09-.25 0-.46.05-.62.14-.17.09-.31.22-.43.39s-.21.38-.26.63c-.06.25-.08.52-.08.79v1.05a3.42 3.42 0 0 0 .05.65l2.67-2.41h-.01Zm.08 1.15c0-.09 0-.2-.01-.32 0-.13-.02-.24-.03-.35l-2.67 2.4c.04.18.09.35.17.5a1.187 1.187 0 0 0 .65.62c.15.06.31.08.5.08.24 0 .45-.05.62-.15.17-.1.31-.23.42-.4.13-.18.22-.39.27-.64.05-.25.08-.51.08-.78v-.98.02ZM655.6 165.18c-.08.3-.19.56-.35.78-.15.22-.35.4-.58.53-.23.13-.52.2-.85.2-.27 0-.51-.04-.72-.13-.21-.09-.39-.21-.55-.38-.22-.23-.39-.52-.49-.86-.1-.34-.15-.7-.15-1.09v-1.26c0-.34.04-.66.12-.96.08-.3.19-.57.35-.79.15-.22.35-.4.59-.52.24-.13.52-.19.84-.19.27 0 .51.05.73.14.21.09.39.22.54.38.21.22.37.51.47.85.1.34.15.71.16 1.1v1.26c0 .34-.04.66-.11.95v-.01Zm-.46-3a2.35 2.35 0 0 0-.16-.51c-.07-.15-.16-.28-.27-.39-.11-.11-.24-.19-.38-.25-.15-.06-.32-.09-.51-.09-.25 0-.46.05-.62.14-.17.09-.31.22-.43.39s-.21.38-.26.63c-.06.25-.08.52-.08.79v1.05a3.42 3.42 0 0 0 .05.65l2.67-2.41h-.01Zm.08 1.15c0-.09 0-.2-.01-.32 0-.13-.02-.24-.03-.35l-2.67 2.4c.04.18.09.35.17.5a1.187 1.187 0 0 0 .65.62c.15.06.31.08.5.08.24 0 .45-.05.62-.15.17-.1.31-.23.42-.4.13-.18.22-.39.27-.64.05-.25.08-.51.08-.78v-.98.02ZM660.682 165.18c-.08.3-.19.56-.35.78-.15.22-.35.4-.58.53-.23.13-.52.2-.85.2-.27 0-.51-.04-.72-.13-.21-.09-.39-.21-.55-.38-.22-.23-.39-.52-.49-.86-.1-.34-.15-.7-.15-1.09v-1.26c0-.34.04-.66.12-.96.08-.3.19-.57.35-.79.15-.22.35-.4.59-.52.24-.13.52-.19.84-.19.27 0 .51.05.73.14.21.09.39.22.54.38.21.22.37.51.47.85.1.34.15.71.16 1.1v1.26c0 .34-.04.66-.11.95v-.01Zm-.46-3a2.35 2.35 0 0 0-.16-.51c-.07-.15-.16-.28-.27-.39-.11-.11-.24-.19-.38-.25-.15-.06-.32-.09-.51-.09-.25 0-.46.05-.62.14-.17.09-.31.22-.43.39s-.21.38-.26.63c-.06.25-.08.52-.08.79v1.05a3.42 3.42 0 0 0 .05.65l2.67-2.41h-.01Zm.08 1.15c0-.09 0-.2-.01-.32 0-.13-.02-.24-.03-.35l-2.67 2.4c.04.18.09.35.17.5a1.187 1.187 0 0 0 .65.62c.15.06.31.08.5.08.24 0 .45-.05.62-.15.17-.1.31-.23.42-.4.13-.18.22-.39.27-.64.05-.25.08-.51.08-.78v-.98.02ZM661.97 166.6v-.39l1.97-2.23c.15-.17.28-.32.4-.48.12-.15.23-.3.32-.45.09-.15.16-.29.21-.44.05-.15.07-.3.07-.46 0-.18-.03-.35-.09-.5a1.16 1.16 0 0 0-.26-.39c-.11-.11-.25-.19-.4-.25-.15-.06-.33-.09-.52-.09-.21 0-.4.04-.56.11-.16.07-.3.17-.42.29-.12.13-.2.27-.27.44-.07.17-.09.35-.1.56h-.5c0-.25.05-.48.14-.7.09-.22.21-.41.37-.58.16-.17.35-.3.57-.39.22-.1.48-.14.76-.14.26 0 .51.04.72.12.22.08.4.19.56.33.15.15.27.32.36.52.09.2.13.42.13.67 0 .2-.04.39-.11.58-.07.19-.16.37-.27.55-.11.18-.24.35-.38.52-.14.17-.28.33-.43.49l-1.68 1.89h3.16v.43h-3.77l.02-.01ZM631.641 174.24v-.41l3.54-1.56v.52l-2.8 1.17-.21.08.21.08 2.8 1.16v.53l-3.54-1.57ZM636.719 174.24v-.41l3.54-1.56v.52l-2.8 1.17-.21.08.21.08 2.8 1.16v.53l-3.54-1.57ZM646.732 176.76v-.39l1.97-2.23c.15-.17.28-.32.4-.48.12-.15.23-.3.32-.45.09-.15.16-.29.21-.44.05-.15.07-.3.07-.46 0-.18-.03-.35-.09-.5a1.16 1.16 0 0 0-.26-.39c-.11-.11-.25-.19-.4-.25-.15-.06-.33-.09-.52-.09-.21 0-.4.04-.56.11-.16.07-.3.17-.42.29-.12.13-.2.27-.27.44-.07.17-.09.35-.1.56h-.5c0-.25.05-.48.14-.7.09-.22.21-.41.37-.58.16-.17.35-.3.57-.39.22-.1.48-.14.76-.14.26 0 .51.04.72.12.22.08.4.19.56.33.15.15.27.32.36.52.09.2.13.42.13.67 0 .2-.04.39-.11.58-.07.19-.16.37-.27.55-.11.18-.24.35-.38.52-.14.17-.28.33-.43.49l-1.68 1.89h3.16v.43h-3.77l.02-.01ZM651.81 176.76v-.39l1.97-2.23c.15-.17.28-.32.4-.48.12-.15.23-.3.32-.45.09-.15.16-.29.21-.44.05-.15.07-.3.07-.46 0-.18-.03-.35-.09-.5a1.16 1.16 0 0 0-.26-.39c-.11-.11-.25-.19-.4-.25-.15-.06-.33-.09-.52-.09-.21 0-.4.04-.56.11-.16.07-.3.17-.42.29-.12.13-.2.27-.27.44-.07.17-.09.35-.1.56h-.5c0-.25.05-.48.14-.7.09-.22.21-.41.37-.58.16-.17.35-.3.57-.39.22-.1.48-.14.76-.14.26 0 .51.04.72.12.22.08.4.19.56.33.15.15.27.32.36.52.09.2.13.42.13.67 0 .2-.04.39-.11.58-.07.19-.16.37-.27.55-.11.18-.24.35-.38.52-.14.17-.28.33-.43.49l-1.68 1.89h3.16v.43h-3.77l.02-.01ZM658.511 173.48c.19 0 .38-.03.55-.08.17-.05.32-.13.45-.23s.23-.22.3-.36c.07-.14.11-.31.11-.5s-.03-.37-.09-.52a1.16 1.16 0 0 0-.26-.39c-.11-.1-.24-.18-.4-.23-.16-.05-.33-.08-.52-.08s-.36.03-.52.09a1.214 1.214 0 0 0-.69.64c-.07.15-.1.32-.1.51h-.5c0-.24.05-.46.14-.66.09-.2.22-.38.38-.53.16-.15.35-.26.57-.35a2.297 2.297 0 0 1 1.43-.01c.21.07.4.18.56.33.16.14.28.32.37.52.09.21.13.44.13.7 0 .15-.02.3-.07.43-.05.14-.12.26-.21.38a1.676 1.676 0 0 1-.76.55c.19.05.35.12.5.21.15.09.27.2.37.32.1.12.17.26.22.42.05.15.08.32.08.49 0 .27-.05.51-.14.72-.1.21-.23.39-.39.54-.17.15-.37.26-.59.34-.23.08-.47.12-.73.12s-.51-.04-.74-.12c-.23-.08-.43-.19-.6-.34-.17-.15-.31-.33-.42-.54-.1-.21-.16-.45-.16-.72h.5c0 .2.04.37.12.53.07.16.18.29.31.4.13.11.28.2.45.26.17.06.36.09.56.09.2 0 .38-.03.55-.08a1.154 1.154 0 0 0 .71-.65c.07-.16.1-.34.1-.55 0-.22-.04-.41-.12-.56-.08-.16-.19-.28-.32-.38-.14-.1-.3-.17-.49-.22-.18-.05-.38-.07-.58-.07h-.5v-.43h.5l-.06.01ZM666.039 174.82v.42h-.94v1.52h-.5v-1.52h-2.829v-.29l2.79-4.21h.539v4.07h.94v.01Zm-1.43 0v-3.43l-.239.4-2 3.03h2.239ZM631.641 184.4v-.41l3.54-1.56v.52l-2.8 1.17-.21.08.21.08 2.8 1.16v.53l-3.54-1.57ZM636.719 184.4v-.41l3.54-1.56v.52l-2.8 1.17-.21.08.21.08 2.8 1.16v.53l-3.54-1.57ZM649.762 181.3h-.07c-.39 0-.73.07-1.02.2-.29.13-.52.3-.71.51-.2.22-.35.48-.45.78-.1.3-.17.61-.18.94.08-.12.17-.22.28-.31.11-.09.23-.18.36-.24.13-.07.26-.12.41-.15.15-.03.3-.06.45-.06.29 0 .54.06.76.17.22.11.4.26.54.44s.25.4.32.63a2.582 2.582 0 0 1 0 1.5c-.07.25-.19.47-.34.66-.15.19-.34.34-.56.46-.22.12-.48.17-.77.17-.29 0-.57-.06-.81-.18-.24-.12-.44-.28-.6-.48-.17-.2-.31-.44-.4-.72-.09-.27-.14-.55-.14-.84v-.53c0-.47.06-.92.17-1.36.11-.44.32-.82.61-1.16.23-.28.53-.49.88-.65.35-.15.76-.23 1.22-.24h.07v.45l-.02.01Zm-1.49 2.16c-.15.05-.29.12-.42.21s-.24.2-.34.32c-.09.13-.16.27-.21.42v.38c0 .26.04.5.11.71.07.22.17.4.3.56.13.16.28.28.46.37.18.09.37.13.58.13.21 0 .4-.05.56-.14.16-.09.29-.21.4-.36.11-.15.19-.32.25-.51s.08-.4.08-.6c0-.2-.03-.4-.08-.59-.06-.19-.14-.35-.25-.5-.11-.15-.25-.26-.42-.35a1.17 1.17 0 0 0-.57-.13c-.16 0-.31.02-.46.07l.01.01ZM655.57 182.97c-.07.16-.16.31-.28.43-.08.09-.18.17-.29.24-.11.07-.22.13-.34.18.17.06.32.13.46.22s.27.2.37.33c.1.13.18.27.24.43.06.16.09.33.09.51 0 .27-.05.51-.16.72-.1.21-.24.38-.42.52s-.38.25-.61.32a2.523 2.523 0 0 1-1.47 0 1.69 1.69 0 0 1-.61-.32c-.18-.14-.32-.32-.42-.52-.1-.21-.15-.45-.15-.72 0-.18.03-.35.09-.51.06-.16.14-.3.24-.43.1-.13.22-.24.36-.33.14-.09.29-.17.46-.23a1.94 1.94 0 0 1-.4-.22c-.12-.09-.23-.19-.32-.31a1.33 1.33 0 0 1-.28-.85c0-.26.04-.49.13-.69.09-.2.21-.37.37-.51s.34-.24.56-.32c.21-.07.44-.11.69-.11.25 0 .48.04.69.11.21.07.4.18.56.32.16.14.29.31.38.51.09.2.141.43.141.69 0 .19-.031.37-.101.53l.02.01Zm-.35 1.81a1.23 1.23 0 0 0-.31-.4c-.13-.11-.279-.19-.449-.25-.17-.06-.351-.09-.541-.09-.19 0-.37.03-.54.09-.17.06-.32.14-.45.25-.13.11-.23.25-.31.41-.08.16-.11.34-.11.53s.04.38.11.54c.07.16.18.29.31.39.13.1.28.18.45.24a1.922 1.922 0 0 0 1.09 0c.17-.05.32-.13.45-.24.13-.1.23-.23.31-.39.08-.16.12-.34.12-.54s-.04-.38-.12-.53l-.01-.01Zm-.139-2.83a1.19 1.19 0 0 0-.271-.38c-.12-.1-.249-.19-.409-.24-.15-.06-.321-.09-.491-.09-.17 0-.34.03-.49.08-.15.05-.279.14-.399.24-.11.1-.201.23-.271.38-.06.15-.099.32-.099.5s.029.35.099.49.161.27.271.37c.12.1.249.18.399.23a1.525 1.525 0 0 0 .971 0c.15-.05.289-.13.399-.23.12-.1.21-.22.27-.37.07-.14.1-.31.1-.49s-.03-.34-.1-.49h.021ZM660.961 184.97v.42h-.94v1.52h-.5v-1.52h-2.83v-.29l2.79-4.21h.54v4.07h.94v.01Zm-1.43 0v-3.43l-.24.4-2 3.03H659.531ZM661.97 186.91v-.39l1.97-2.23c.15-.17.28-.32.4-.48.12-.15.23-.3.32-.45.09-.15.16-.29.21-.44.05-.15.07-.3.07-.46 0-.18-.03-.35-.09-.5a1.16 1.16 0 0 0-.26-.39c-.11-.11-.25-.19-.4-.25-.15-.06-.33-.09-.52-.09-.21 0-.4.04-.56.11-.16.07-.3.17-.42.29-.12.13-.2.27-.27.44-.07.17-.09.35-.1.56h-.5c0-.25.05-.48.14-.7.09-.22.21-.41.37-.58.16-.17.35-.3.57-.39.22-.1.48-.14.76-.14.26 0 .51.04.72.12.22.08.4.19.56.33.15.15.27.32.36.52.09.2.13.42.13.67 0 .2-.04.39-.11.58-.07.19-.16.37-.27.55-.11.18-.24.35-.38.52-.14.17-.28.33-.43.49l-1.68 1.89h3.16v.43h-3.77l.02-.01ZM631.641 194.55v-.41l3.54-1.56v.52l-2.8 1.17-.21.08.21.08 2.8 1.16v.53l-3.54-1.57ZM636.719 194.55v-.41l3.54-1.56v.52l-2.8 1.17-.21.08.21.08 2.8 1.16v.53l-3.54-1.57ZM648.8 196.48c.28-.12.52-.28.7-.5.2-.23.34-.49.42-.78.08-.29.13-.6.14-.93v-.04c-.07.12-.16.24-.26.34-.1.1-.21.19-.34.27-.13.08-.27.14-.42.18-.15.04-.32.06-.49.06-.28 0-.53-.06-.75-.18-.22-.12-.4-.27-.54-.46-.15-.19-.25-.41-.33-.65a2.582 2.582 0 0 1 .01-1.52c.08-.26.19-.48.35-.68.15-.19.34-.35.57-.47.23-.12.49-.18.78-.18.33 0 .61.06.84.18.24.12.43.28.58.48.17.22.29.49.37.8.08.31.12.62.13.94v.48c0 .45-.05.89-.16 1.32-.1.43-.29.8-.57 1.12-.21.25-.49.45-.83.6-.34.15-.76.23-1.24.23h-.11v-.45h.11c.4 0 .75-.06 1.04-.18v.02Zm.3-1.89c.15-.06.3-.13.43-.23s.24-.21.33-.35c.09-.13.17-.28.22-.44v-.24c0-.27-.03-.52-.1-.75-.06-.23-.15-.44-.27-.61a1.43 1.43 0 0 0-.44-.41 1.2 1.2 0 0 0-.61-.15c-.22 0-.42.05-.58.15-.17.09-.31.22-.42.38a2.079 2.079 0 0 0-.26 1.71 1.518 1.518 0 0 0 .65.88c.16.09.35.14.56.14.17 0 .33-.03.48-.08h.01ZM655.57 193.13c-.07.16-.16.31-.28.43-.08.09-.18.17-.29.24-.11.07-.22.13-.34.18.17.06.32.13.46.22s.27.2.37.33c.1.13.18.27.24.43.06.16.09.33.09.51 0 .27-.05.51-.16.72-.1.21-.24.38-.42.52s-.38.25-.61.32a2.523 2.523 0 0 1-1.47 0 1.69 1.69 0 0 1-.61-.32c-.18-.14-.32-.32-.42-.52-.1-.21-.15-.45-.15-.72 0-.18.03-.35.09-.51.06-.16.14-.3.24-.43.1-.13.22-.24.36-.33.14-.09.29-.17.46-.23a1.94 1.94 0 0 1-.4-.22c-.12-.09-.23-.19-.32-.31a1.33 1.33 0 0 1-.28-.85c0-.26.04-.49.13-.69.09-.2.21-.37.37-.51s.34-.24.56-.32c.21-.07.44-.11.69-.11.25 0 .48.04.69.11.21.07.4.18.56.32.16.14.29.31.38.51.09.2.141.43.141.69 0 .19-.031.37-.101.53l.02.01Zm-.35 1.81a1.23 1.23 0 0 0-.31-.4c-.13-.11-.279-.19-.449-.25-.17-.06-.351-.09-.541-.09-.19 0-.37.03-.54.09-.17.06-.32.14-.45.25-.13.11-.23.25-.31.41-.08.16-.11.34-.11.53s.04.38.11.54c.07.16.18.29.31.39.13.1.28.18.45.24a1.922 1.922 0 0 0 1.09 0c.17-.05.32-.13.45-.24.13-.1.23-.23.31-.39.08-.16.12-.34.12-.54s-.04-.38-.12-.53l-.01-.01Zm-.139-2.83a1.19 1.19 0 0 0-.271-.38c-.12-.1-.249-.19-.409-.24-.15-.06-.321-.09-.491-.09-.17 0-.34.03-.49.08-.15.05-.279.14-.399.24-.11.1-.201.23-.271.38-.06.15-.099.32-.099.5s.029.35.099.49.161.27.271.37c.12.1.249.18.399.23a1.525 1.525 0 0 0 .971 0c.15-.05.289-.13.399-.23.12-.1.21-.22.27-.37.07-.14.1-.31.1-.49s-.03-.34-.1-.49h.021ZM658.511 193.79c.19 0 .38-.03.55-.08.17-.05.32-.13.45-.23s.23-.22.3-.36c.07-.14.11-.31.11-.5s-.03-.37-.09-.52a1.16 1.16 0 0 0-.26-.39c-.11-.1-.24-.18-.4-.23-.16-.05-.33-.08-.52-.08s-.36.03-.52.09a1.214 1.214 0 0 0-.69.64c-.07.15-.1.32-.1.51h-.5c0-.24.05-.46.14-.66.09-.2.22-.38.38-.53.16-.15.35-.26.57-.35a2.297 2.297 0 0 1 1.43-.01c.21.07.4.18.56.33.16.14.28.32.37.52.09.21.13.44.13.7 0 .15-.02.3-.07.43-.05.14-.12.26-.21.38a1.676 1.676 0 0 1-.76.55c.19.05.35.12.5.21.15.09.27.2.37.32.1.12.17.26.22.42.05.15.08.32.08.49 0 .27-.05.51-.14.72-.1.21-.23.39-.39.54-.17.15-.37.26-.59.34-.23.08-.47.12-.73.12s-.51-.04-.74-.12c-.23-.08-.43-.19-.6-.34-.17-.15-.31-.33-.42-.54-.1-.21-.16-.45-.16-.72h.5c0 .2.04.37.12.53.07.16.18.29.31.4.13.11.28.2.45.26.17.06.36.09.56.09.2 0 .38-.03.55-.08a1.154 1.154 0 0 0 .71-.65c.07-.16.1-.34.1-.55 0-.22-.04-.41-.12-.56-.08-.16-.19-.28-.32-.38-.14-.1-.3-.17-.49-.22-.18-.05-.38-.07-.58-.07h-.5v-.43h.5l-.06.01ZM661.97 197.07v-.39l1.97-2.23c.15-.17.28-.32.4-.48.12-.15.23-.3.32-.45.09-.15.16-.29.21-.44.05-.15.07-.3.07-.46 0-.18-.03-.35-.09-.5a1.16 1.16 0 0 0-.26-.39c-.11-.11-.25-.19-.4-.25-.15-.06-.33-.09-.52-.09-.21 0-.4.04-.56.11-.16.07-.3.17-.42.29-.12.13-.2.27-.27.44-.07.17-.09.35-.1.56h-.5c0-.25.05-.48.14-.7.09-.22.21-.41.37-.58.16-.17.35-.3.57-.39.22-.1.48-.14.76-.14.26 0 .51.04.72.12.22.08.4.19.56.33.15.15.27.32.36.52.09.2.13.42.13.67 0 .2-.04.39-.11.58-.07.19-.16.37-.27.55-.11.18-.24.35-.38.52-.14.17-.28.33-.43.49l-1.68 1.89h3.16v.43h-3.77l.02-.01ZM630.66 393.07v-.41l3.54-1.56v.52l-2.8 1.17-.21.08.21.08 2.8 1.16v.53l-3.54-1.57ZM635.738 393.07v-.41l3.54-1.56v.52l-2.8 1.17-.21.08.21.08 2.8 1.16v.53l-3.54-1.57ZM649.542 394.16c-.08.3-.19.56-.35.78-.15.22-.35.4-.58.53-.23.13-.52.2-.85.2-.27 0-.51-.04-.72-.13-.21-.09-.39-.21-.55-.38-.22-.23-.39-.52-.49-.86-.1-.34-.15-.7-.15-1.09v-1.26c0-.34.04-.66.12-.96.08-.3.19-.57.35-.79.15-.22.35-.4.59-.53s.52-.19.84-.19c.27 0 .51.04.73.14.21.09.39.22.54.38.21.22.37.51.47.85.1.34.15.71.16 1.1v1.26c0 .34-.04.66-.11.95Zm-.46-3a2.35 2.35 0 0 0-.16-.51c-.07-.15-.16-.28-.27-.39-.11-.11-.24-.2-.38-.25-.15-.06-.32-.09-.51-.09-.25 0-.46.05-.62.14-.17.09-.31.22-.43.39s-.21.38-.26.63c-.06.25-.08.52-.08.79v1.05c0 .11 0 .21.01.32.01.11.02.22.04.33l2.67-2.41h-.01Zm.08 1.15c0-.09 0-.2-.01-.32 0-.13-.02-.24-.03-.35l-2.67 2.4c.04.18.09.35.17.5a1.187 1.187 0 0 0 .65.62c.15.06.31.08.5.08.24 0 .45-.05.62-.15.17-.1.31-.23.42-.4.13-.18.22-.39.27-.64.05-.25.08-.5.08-.78v-.97.01ZM654.62 394.16c-.08.3-.19.56-.35.78-.15.22-.35.4-.58.53-.23.13-.52.2-.85.2-.27 0-.51-.04-.72-.13-.21-.09-.39-.21-.55-.38-.22-.23-.39-.52-.49-.86-.1-.34-.15-.7-.15-1.09v-1.26c0-.34.04-.66.12-.96.08-.3.19-.57.35-.79.15-.22.35-.4.59-.53s.52-.19.84-.19c.27 0 .51.04.73.14.21.09.39.22.54.38.21.22.37.51.47.85.1.34.15.71.16 1.1v1.26c0 .34-.04.66-.11.95Zm-.46-3a2.35 2.35 0 0 0-.16-.51c-.07-.15-.16-.28-.27-.39-.11-.11-.24-.2-.38-.25-.15-.06-.32-.09-.51-.09-.25 0-.46.05-.62.14-.17.09-.31.22-.43.39s-.21.38-.26.63c-.06.25-.08.52-.08.79v1.05a3.42 3.42 0 0 0 .05.65l2.67-2.41h-.01Zm.08 1.15c0-.09 0-.2-.01-.32 0-.13-.02-.24-.03-.35l-2.67 2.4c.04.18.09.35.17.5a1.187 1.187 0 0 0 .65.62c.15.06.31.08.5.08.24 0 .45-.05.62-.15.17-.1.31-.23.42-.4.13-.18.22-.39.27-.64.05-.25.08-.5.08-.78v-.97.01ZM659.702 394.16c-.08.3-.19.56-.35.78-.15.22-.35.4-.58.53-.23.13-.52.2-.85.2-.27 0-.51-.04-.72-.13-.21-.09-.39-.21-.55-.38-.22-.23-.39-.52-.49-.86-.1-.34-.15-.7-.15-1.09v-1.26c0-.34.04-.66.12-.96.08-.3.19-.57.35-.79.15-.22.35-.4.59-.53s.52-.19.84-.19c.27 0 .51.04.73.14.21.09.39.22.54.38.21.22.37.51.47.85.1.34.15.71.16 1.1v1.26c0 .34-.04.66-.11.95Zm-.46-3a2.35 2.35 0 0 0-.16-.51c-.07-.15-.16-.28-.27-.39-.11-.11-.24-.2-.38-.25-.15-.06-.32-.09-.51-.09-.25 0-.46.05-.62.14-.17.09-.31.22-.43.39s-.21.38-.26.63c-.06.25-.08.52-.08.79v1.05a3.42 3.42 0 0 0 .05.65l2.67-2.41h-.01Zm.08 1.15c0-.09 0-.2-.01-.32 0-.13-.02-.24-.03-.35l-2.67 2.4c.04.18.09.35.17.5a1.187 1.187 0 0 0 .65.62c.15.06.31.08.5.08.24 0 .45-.05.62-.15.17-.1.31-.23.42-.4.13-.18.22-.39.27-.64.05-.25.08-.5.08-.78v-.97.01ZM660.982 395.58v-.39l1.97-2.23c.15-.17.28-.32.4-.48.12-.16.23-.3.32-.45.09-.15.16-.29.21-.44.05-.15.07-.3.07-.46 0-.18-.03-.35-.09-.5a1.16 1.16 0 0 0-.26-.39c-.11-.11-.25-.19-.4-.25-.15-.06-.33-.09-.52-.09-.21 0-.4.04-.56.11-.16.07-.3.17-.42.29-.12.13-.2.27-.27.44-.06.17-.09.35-.1.56h-.5c0-.25.05-.48.14-.7.09-.22.21-.41.37-.58.16-.17.35-.3.57-.39.22-.09.48-.14.76-.14.26 0 .51.04.72.12.22.08.4.19.56.33.15.15.27.32.36.52.09.2.13.42.13.67 0 .2-.04.39-.11.58-.07.19-.16.37-.27.55-.11.18-.24.35-.38.52-.14.17-.28.33-.43.49l-1.68 1.89h3.16v.43h-3.77l.02-.01ZM670.129 393.64v.42h-.94v1.52h-.5v-1.52h-2.83v-.29l2.79-4.21h.54v4.08h.94Zm-1.43 0v-3.43l-.24.4-2 3.03H668.699ZM671.969 389.57h3.01v.48h-2.59l-.21 2.01a1.998 1.998 0 0 1 1.13-.33c.28 0 .52.05.74.14.22.1.41.23.56.4.15.17.27.38.36.62.08.24.13.5.13.78s-.04.54-.11.78-.18.45-.33.63c-.15.18-.34.33-.56.43-.23.1-.49.16-.8.16-.25 0-.48-.04-.69-.11a1.66 1.66 0 0 1-.95-.85c-.1-.2-.17-.44-.19-.7h.48c.04.28.13.51.27.69.14.18.33.3.56.36.16.06.32.1.48.1.16 0 .32-.03.48-.09.18-.06.32-.16.44-.29.12-.13.2-.29.26-.47.06-.17.09-.35.09-.54 0-.19-.02-.37-.07-.55a1.19 1.19 0 0 0-.65-.77c-.13-.07-.27-.13-.41-.16-.14-.03-.29-.04-.45-.03a1.41 1.41 0 0 0-.87.38l-.39-.11.29-2.93-.01-.03ZM679.239 389.98h-.07c-.39 0-.73.07-1.02.2-.29.13-.52.3-.71.51-.2.22-.35.48-.45.78-.1.3-.17.61-.18.94.08-.12.17-.22.28-.31.11-.09.23-.18.36-.24a1.84 1.84 0 0 1 .86-.22c.29 0 .54.06.76.17.22.11.4.26.54.44s.25.4.32.63a2.582 2.582 0 0 1 0 1.5c-.07.25-.19.47-.34.66-.15.19-.34.34-.56.46-.22.12-.48.17-.77.17-.29 0-.57-.06-.81-.18-.24-.12-.44-.28-.6-.48-.17-.2-.31-.44-.4-.72-.09-.27-.14-.55-.14-.84v-.53c0-.47.06-.92.17-1.36.11-.44.32-.83.61-1.16.23-.28.53-.49.88-.65.35-.15.76-.23 1.22-.24h.07v.45l-.02.02Zm-1.49 2.16c-.15.05-.29.12-.42.21s-.24.2-.34.32c-.09.12-.16.26-.21.42v.38c0 .26.04.5.11.71.07.22.17.4.3.56.13.16.28.28.46.37.18.09.37.13.58.13.21 0 .4-.05.56-.14.16-.09.29-.21.4-.36.11-.15.19-.32.25-.51s.08-.4.08-.6c0-.2-.03-.4-.08-.59-.06-.19-.14-.36-.25-.5-.11-.15-.25-.26-.42-.35-.17-.08-.35-.13-.57-.13-.16 0-.31.02-.46.07l.01.01ZM682.661 395.58h-.51l2.55-5.57h-3.42v-.45h3.95v.29l-2.57 5.73ZM690.141 391.65c-.07.16-.16.31-.28.43-.08.09-.18.17-.29.24-.11.07-.22.13-.34.17.17.06.32.13.46.22s.27.2.37.33c.1.13.18.27.24.43.06.16.09.33.09.51 0 .27-.05.51-.16.72-.1.21-.24.38-.42.53-.18.14-.38.25-.61.32-.23.07-.48.11-.73.11s-.5-.04-.74-.11c-.23-.07-.44-.18-.61-.32-.18-.14-.32-.32-.42-.53-.1-.21-.15-.45-.15-.72 0-.18.03-.36.09-.51.06-.16.14-.3.24-.43.1-.13.22-.24.36-.33.14-.09.29-.17.46-.23a1.94 1.94 0 0 1-.4-.22c-.12-.09-.23-.19-.32-.31s-.16-.25-.21-.39c-.05-.14-.07-.3-.07-.46 0-.26.04-.49.13-.69.09-.2.21-.37.37-.51s.34-.24.56-.32c.21-.07.44-.11.69-.11.25 0 .48.04.69.11.21.07.4.18.56.32.16.14.29.31.38.51.09.2.14.43.14.69 0 .19-.03.37-.1.53l.02.02Zm-.35 1.81a1.23 1.23 0 0 0-.31-.4 1.41 1.41 0 0 0-.45-.25 1.61 1.61 0 0 0-.54-.09c-.19 0-.37.03-.54.09-.17.06-.32.14-.45.25-.13.11-.23.25-.31.41-.08.16-.11.34-.11.54s.04.38.11.54c.07.16.18.29.31.39.13.1.28.18.45.24a1.922 1.922 0 0 0 1.09 0c.17-.05.32-.13.45-.24.13-.1.23-.23.31-.39.08-.16.12-.33.12-.54 0-.21-.04-.38-.12-.54l-.01-.01Zm-.14-2.83c-.07-.15-.16-.28-.27-.38a1.2 1.2 0 0 0-.41-.24c-.15-.06-.32-.09-.49-.09-.17 0-.34.03-.49.08-.15.06-.28.14-.4.24-.11.1-.2.23-.27.38-.06.15-.1.32-.1.5s.03.35.1.49.16.27.27.37c.11.1.25.18.4.23a1.525 1.525 0 0 0 .97 0c.15-.05.29-.13.4-.23.12-.1.21-.22.27-.37.07-.14.1-.31.1-.49s-.03-.34-.1-.49h.02ZM630.66 403.23v-.41l3.54-1.56v.52l-2.8 1.17-.21.08.21.08 2.8 1.16v.53l-3.54-1.57ZM635.738 403.23v-.41l3.54-1.56v.52l-2.8 1.17-.21.08.21.08 2.8 1.16v.53l-3.54-1.57ZM645.752 405.74v-.39l1.97-2.23c.15-.17.28-.32.4-.48.12-.16.23-.3.32-.45.09-.15.16-.29.21-.44.05-.15.07-.3.07-.46 0-.18-.03-.35-.09-.5a1.16 1.16 0 0 0-.26-.39c-.11-.11-.25-.19-.4-.25-.15-.06-.33-.09-.52-.09-.21 0-.4.04-.56.11-.16.07-.3.17-.42.29-.12.13-.2.27-.27.44-.06.17-.09.35-.1.56h-.5c0-.25.05-.48.14-.7.09-.22.21-.41.37-.58.16-.17.35-.3.57-.39.22-.09.48-.14.76-.14.26 0 .51.04.72.12.22.08.4.19.56.33.15.15.27.32.36.52.09.2.13.42.13.67 0 .2-.04.39-.11.58-.07.19-.16.37-.27.55-.11.18-.24.35-.38.52-.14.17-.28.33-.43.49l-1.68 1.89h3.16v.43h-3.77l.02-.01ZM650.83 405.74v-.39l1.97-2.23c.15-.17.28-.32.4-.48.12-.16.23-.3.32-.45.09-.15.16-.29.21-.44.05-.15.07-.3.07-.46 0-.18-.03-.35-.09-.5a1.16 1.16 0 0 0-.26-.39c-.11-.11-.25-.19-.4-.25-.15-.06-.33-.09-.52-.09-.21 0-.4.04-.56.11-.16.07-.3.17-.42.29-.12.13-.2.27-.27.44-.06.17-.09.35-.1.56h-.5c0-.25.05-.48.14-.7.09-.22.21-.41.37-.58.16-.17.35-.3.57-.39.22-.09.48-.14.76-.14.26 0 .51.04.72.12.22.08.4.19.56.33.15.15.27.32.36.52.09.2.13.42.13.67 0 .2-.04.39-.11.58-.07.19-.16.37-.27.55-.11.18-.24.35-.38.52-.14.17-.28.33-.43.49l-1.68 1.89h3.16v.43h-3.77l.02-.01ZM657.531 402.46c.19 0 .38-.03.55-.08.17-.05.32-.13.45-.23s.23-.22.3-.36c.07-.14.11-.31.11-.5s-.03-.37-.09-.52a1.16 1.16 0 0 0-.26-.39c-.11-.1-.24-.18-.4-.23-.16-.05-.33-.08-.52-.08s-.36.03-.52.09a1.214 1.214 0 0 0-.69.64c-.07.15-.1.32-.1.51h-.5c0-.24.05-.46.14-.66.09-.2.22-.38.38-.53.16-.15.35-.26.57-.35a2.297 2.297 0 0 1 1.43-.01c.22.07.4.18.56.33.16.14.28.32.37.53.09.21.13.44.13.7 0 .15-.02.3-.07.43-.05.14-.12.26-.21.38a1.676 1.676 0 0 1-.76.55c.19.05.35.12.5.21.15.09.27.2.37.32.1.12.17.26.22.42.05.16.08.32.08.49 0 .27-.05.51-.14.72-.1.21-.23.39-.39.54-.17.15-.37.26-.59.34-.23.08-.47.12-.73.12s-.51-.04-.74-.12c-.23-.08-.43-.19-.6-.34-.17-.15-.31-.33-.42-.54-.1-.21-.16-.45-.16-.72h.5c0 .2.04.37.12.53.07.16.18.29.31.4.13.11.28.2.45.26.17.06.36.09.56.09.2 0 .38-.03.55-.08a1.154 1.154 0 0 0 .71-.65c.07-.16.1-.34.1-.55 0-.22-.04-.41-.12-.56-.08-.16-.19-.28-.32-.38-.14-.1-.3-.17-.49-.22-.18-.04-.38-.07-.58-.07h-.5v-.42h.5l-.06-.01ZM665.051 403.8v.42h-.94v1.52h-.5v-1.52h-2.83v-.29l2.79-4.21h.54v4.08h.94Zm-1.43 0v-3.43l-.24.4-2 3.03H663.621ZM666.891 399.72h3.01v.48h-2.59l-.21 2.01a1.998 1.998 0 0 1 1.13-.33c.28 0 .52.05.74.14.22.1.41.23.56.4.15.17.27.38.36.62.08.24.13.5.13.78s-.04.54-.11.78-.18.45-.33.63c-.15.18-.34.33-.56.43-.23.1-.49.16-.8.16-.25 0-.48-.04-.69-.11a1.66 1.66 0 0 1-.95-.85c-.1-.2-.17-.44-.19-.7h.48c.04.28.13.51.27.69.14.18.33.3.56.36.16.06.32.1.48.1.16 0 .32-.03.48-.09.18-.06.32-.16.44-.29.12-.13.2-.29.26-.47.06-.17.09-.35.09-.54 0-.19-.02-.37-.07-.55a1.19 1.19 0 0 0-.65-.77c-.13-.07-.27-.13-.41-.16-.14-.03-.29-.04-.45-.03a1.41 1.41 0 0 0-.87.38l-.39-.11.29-2.93-.01-.03ZM675.211 403.8v.42h-.94v1.52h-.5v-1.52h-2.83v-.29l2.79-4.21h.54v4.08h.94Zm-1.43 0v-3.43l-.24.4-2 3.03H673.781ZM677.039 399.72h3.01v.48h-2.59l-.21 2.01a1.998 1.998 0 0 1 1.13-.33c.28 0 .52.05.74.14.22.1.41.23.56.4.15.17.27.38.36.62.08.24.13.5.13.78s-.04.54-.11.78-.18.45-.33.63c-.15.18-.34.33-.56.43-.23.1-.49.16-.8.16-.25 0-.48-.04-.69-.11a1.66 1.66 0 0 1-.95-.85c-.1-.2-.17-.44-.19-.7h.48c.04.28.13.51.27.69.14.18.33.3.56.36.16.06.32.1.48.1.16 0 .32-.03.48-.09.18-.06.32-.16.44-.29.12-.13.2-.29.26-.47.06-.17.09-.35.09-.54 0-.19-.02-.37-.07-.55a1.19 1.19 0 0 0-.65-.77c-.13-.07-.27-.13-.41-.16a1.65 1.65 0 0 0-.45-.03 1.41 1.41 0 0 0-.87.38l-.39-.11.29-2.93-.01-.03ZM684.321 400.13h-.07c-.39 0-.73.07-1.02.2-.29.13-.52.3-.71.51-.2.22-.35.48-.45.78-.1.3-.17.61-.18.94.08-.12.17-.22.28-.31.11-.09.23-.18.36-.24a1.84 1.84 0 0 1 .86-.22c.29 0 .54.06.76.17.22.11.4.26.54.44s.25.4.32.63a2.582 2.582 0 0 1 0 1.5c-.07.25-.19.47-.34.66-.15.19-.34.34-.56.46-.22.12-.48.17-.77.17-.29 0-.57-.06-.81-.18-.24-.12-.44-.28-.6-.48-.17-.2-.31-.44-.4-.72-.09-.27-.14-.55-.14-.84v-.53c0-.47.06-.92.17-1.36.11-.44.32-.83.61-1.16.23-.28.53-.49.88-.65.35-.15.76-.23 1.22-.24h.07v.45l-.02.02Zm-1.49 2.16c-.15.05-.29.12-.42.21s-.24.2-.34.32c-.09.12-.16.26-.21.42v.38c0 .26.04.5.11.71.07.22.17.4.3.56.13.16.28.28.46.37.18.09.37.13.58.13.21 0 .4-.05.56-.14.16-.09.29-.21.4-.36.11-.15.19-.32.25-.51s.08-.4.08-.6c0-.2-.03-.4-.08-.59-.06-.19-.14-.36-.25-.5-.11-.15-.25-.26-.42-.35-.17-.08-.35-.13-.57-.13-.16 0-.31.02-.46.07l.01.01ZM686.369 405.74v-.39l1.97-2.23c.15-.17.28-.32.4-.48.12-.16.23-.3.32-.45.09-.15.16-.29.21-.44.05-.15.07-.3.07-.46 0-.18-.03-.35-.09-.5a1.16 1.16 0 0 0-.26-.39c-.11-.11-.25-.19-.4-.25-.15-.06-.33-.09-.52-.09-.21 0-.4.04-.56.11-.16.07-.3.17-.42.29-.12.13-.2.27-.27.44-.06.17-.09.35-.1.56h-.5c0-.25.05-.48.14-.7.09-.22.21-.41.37-.58.16-.17.35-.3.57-.39.22-.09.48-.14.76-.14.26 0 .51.04.72.12.22.08.4.19.56.33.15.15.27.32.36.52.09.2.13.42.13.67 0 .2-.04.39-.11.58-.07.19-.16.37-.27.55-.11.18-.24.35-.38.52-.14.17-.28.33-.43.49l-1.68 1.89h3.16v.43h-3.77l.02-.01ZM695.52 403.8v.42h-.94v1.52h-.5v-1.52h-2.83v-.29l2.79-4.21h.54v4.08h.94Zm-1.43 0v-3.43l-.24.4-2 3.03H694.09ZM699.559 400.13h-.07c-.39 0-.73.07-1.02.2-.29.13-.52.3-.71.51-.2.22-.35.48-.45.78-.1.3-.17.61-.18.94.08-.12.17-.22.28-.31.11-.09.23-.18.36-.24a1.84 1.84 0 0 1 .86-.22c.29 0 .54.06.76.17.22.11.4.26.54.44s.25.4.32.63a2.582 2.582 0 0 1 0 1.5c-.07.25-.19.47-.34.66-.15.19-.34.34-.56.46-.22.12-.48.17-.77.17-.29 0-.57-.06-.81-.18-.24-.12-.44-.28-.6-.48-.17-.2-.31-.44-.4-.72-.09-.27-.14-.55-.14-.84v-.53c0-.47.06-.92.17-1.36.11-.44.32-.83.61-1.16.23-.28.53-.49.88-.65.35-.15.76-.23 1.22-.24h.07v.45l-.02.02Zm-1.49 2.16c-.15.05-.29.12-.42.21s-.24.2-.34.32c-.09.12-.16.26-.21.42v.38c0 .26.04.5.11.71.07.22.17.4.3.56.13.16.28.28.46.37.18.09.37.13.58.13.21 0 .4-.05.56-.14.16-.09.29-.21.4-.36.11-.15.19-.32.25-.51s.08-.4.08-.6c0-.2-.03-.4-.08-.59-.06-.19-.14-.36-.25-.5-.11-.15-.25-.26-.42-.35-.17-.08-.35-.13-.57-.13-.16 0-.31.02-.46.07l.01.01ZM705.371 401.8c-.07.16-.16.31-.28.43-.08.09-.18.17-.29.24-.11.07-.22.13-.34.17.17.06.32.13.46.22s.27.2.37.33c.1.13.18.27.24.43.06.16.09.33.09.51 0 .27-.05.51-.16.72-.1.21-.24.38-.42.53-.18.14-.38.25-.61.32-.23.07-.48.11-.73.11s-.5-.04-.74-.11c-.23-.07-.44-.18-.61-.32-.18-.14-.32-.32-.42-.53-.1-.21-.15-.45-.15-.72 0-.18.03-.36.09-.51.06-.16.14-.3.24-.43.1-.13.22-.24.36-.33.14-.09.29-.17.46-.23a1.94 1.94 0 0 1-.4-.22c-.12-.09-.23-.19-.32-.31s-.16-.25-.21-.39c-.05-.14-.07-.3-.07-.46 0-.26.04-.49.13-.69.09-.2.21-.37.37-.51s.34-.24.56-.32c.21-.07.44-.11.69-.11.25 0 .48.04.69.11.21.07.4.18.56.32.16.14.29.31.38.51.09.2.14.43.14.69 0 .19-.03.37-.1.53l.02.02Zm-.35 1.81a1.23 1.23 0 0 0-.31-.4 1.41 1.41 0 0 0-.45-.25 1.61 1.61 0 0 0-.54-.09c-.19 0-.37.03-.54.09-.17.06-.32.14-.45.25-.13.11-.23.25-.31.41-.08.16-.11.34-.11.54s.04.38.11.54c.07.16.18.29.31.39.13.1.28.18.45.24a1.922 1.922 0 0 0 1.09 0c.17-.05.32-.13.45-.24.13-.1.23-.23.31-.39.08-.16.12-.33.12-.54 0-.21-.04-.38-.12-.54l-.01-.01Zm-.14-2.83c-.07-.15-.16-.28-.27-.38a1.2 1.2 0 0 0-.41-.24c-.15-.06-.32-.09-.49-.09-.17 0-.34.03-.49.08-.15.06-.28.14-.4.24-.11.1-.2.23-.27.38-.06.15-.1.32-.1.5s.03.35.1.49.16.27.27.37c.11.1.25.18.4.23a1.525 1.525 0 0 0 .97 0c.15-.05.29-.13.4-.23.12-.1.21-.22.27-.37.07-.14.1-.31.1-.49s-.03-.34-.1-.49h.02ZM710.758 403.8v.42h-.94v1.52h-.5v-1.52h-2.83v-.29l2.79-4.21h.54v4.08h.94Zm-1.43 0v-3.43l-.24.4-2 3.03H709.328ZM711.771 405.74v-.39l1.97-2.23c.15-.17.28-.32.4-.48.12-.16.23-.3.32-.45.09-.15.16-.29.21-.44.05-.15.07-.3.07-.46 0-.18-.03-.35-.09-.5a1.16 1.16 0 0 0-.26-.39c-.11-.11-.25-.19-.4-.25-.15-.06-.33-.09-.52-.09-.21 0-.4.04-.56.11-.16.07-.3.17-.42.29-.12.13-.2.27-.27.44-.06.17-.09.35-.1.56h-.5c0-.25.05-.48.14-.7.09-.22.21-.41.37-.58.16-.17.35-.3.57-.39.22-.09.48-.14.76-.14.26 0 .51.04.72.12.22.08.4.19.56.33.15.15.27.32.36.52.09.2.13.42.13.67 0 .2-.04.39-.11.58-.07.19-.16.37-.27.55-.11.18-.24.35-.38.52-.14.17-.28.33-.43.49l-1.68 1.89h3.16v.43h-3.77l.02-.01ZM824.602 410.15l4.75-12.35h.88l-4.74 12.35h-.89ZM834.211 410.15l4.75-12.35h.88l-4.74 12.35h-.89ZM843.812 410.15l4.75-12.35h.881l-4.74 12.35h-.891ZM853.41 410.15l4.75-12.35h.88l-4.74 12.35h-.89Z" fill="#000"/><path d="M241.478 172.05h-131.49v93.69h131.49v-93.69Z" fill="#D8D8D8" stroke="#000" stroke-width=".5" stroke-miterlimit="10"/><path d="M117.961 172.05v93.69" stroke="#000" stroke-width=".5" stroke-miterlimit="10"/><path d="M134.507 189.73a1.84 1.84 0 0 0-.51-.53c-.21-.14-.44-.26-.7-.36-.26-.1-.5-.18-.74-.26-.29-.09-.58-.2-.88-.32-.3-.12-.57-.28-.81-.45a2.37 2.37 0 0 1-.65-.69c-.17-.27-.25-.59-.26-.98 0-.36.08-.67.24-.95.16-.28.36-.51.62-.69.25-.18.54-.32.86-.42.32-.1.64-.14.97-.14.36 0 .71.06 1.03.18.32.12.61.29.86.5.25.21.44.48.59.78.15.3.23.65.24 1.02h-.71c-.03-.28-.1-.53-.21-.76-.11-.23-.25-.42-.42-.59-.17-.16-.38-.29-.61-.38-.23-.09-.5-.13-.78-.13-.24 0-.47.03-.71.1s-.44.16-.63.29c-.19.13-.34.3-.45.49-.11.19-.17.43-.17.69 0 .29.07.53.2.72.13.19.3.36.51.5.21.14.43.26.68.35.25.09.49.17.71.24.31.1.62.21.94.35.32.14.6.3.86.5.25.19.45.43.61.71.16.28.24.61.24.98s-.08.7-.24.98c-.16.28-.37.51-.63.69a3.25 3.25 0 0 1-1.88.56c-.4 0-.79-.06-1.16-.19-.37-.13-.7-.32-.98-.57-.25-.21-.45-.46-.59-.75-.14-.29-.22-.62-.24-.99h.71c.04.31.12.58.25.81.13.23.29.43.49.58.2.16.43.28.69.36a3.06 3.06 0 0 0 1.58.03c.24-.06.46-.16.64-.29.19-.13.35-.29.46-.5.11-.21.18-.44.18-.72 0-.3-.06-.55-.2-.76v.01ZM140.058 184.68v7.91h-.69v-7.91h-2.72v-.62h6.13v.62h-2.72ZM145.37 190.22l-.76 2.38h-.7l2.77-8.53h.64l2.75 8.53h-.7l-.76-2.38H145.37Zm3.04-.63-1.42-4.46-1.43 4.46h2.85ZM152.389 189.03v3.57h-.69v-8.53h2.41c.38 0 .73.07 1.06.18.33.11.62.27.87.49.25.21.44.47.58.78.14.31.21.66.21 1.06 0 .29-.04.55-.13.79s-.2.45-.35.64a2.957 2.957 0 0 1-1.21.87l1.95 3.66v.08h-.74l-1.87-3.57h-2.11l.02-.02Zm1.86-.6c.27 0 .51-.05.74-.15.23-.1.43-.22.6-.39.17-.16.3-.35.4-.58.1-.23.14-.47.14-.75 0-.3-.05-.56-.16-.8s-.25-.43-.43-.6c-.18-.16-.39-.28-.64-.37-.25-.09-.51-.13-.8-.13h-1.72v3.76h1.86l.01.01ZM161.66 184.68v7.91h-.69v-7.91h-2.72v-.62h6.13v.62h-2.72ZM177.717 192.59v-4.09h-4.01v4.09h-.66v-8.53h.66v3.83h4.01v-3.83h.66v8.53h-.66ZM181.188 188.5v3.47h4.34v.62h-5.04v-8.53h5.01v.62h-4.31v3.21h3.77v.62h-3.77v-.01ZM188.397 189.03v3.57h-.69v-8.53h2.41c.38 0 .73.07 1.06.18.33.11.62.27.87.49.25.21.44.47.58.78.14.31.21.66.21 1.06 0 .29-.04.55-.13.79s-.2.45-.35.64a2.957 2.957 0 0 1-1.21.87l1.95 3.66v.08h-.74l-1.87-3.57h-2.11l.02-.02Zm1.86-.6c.27 0 .51-.05.74-.15.23-.1.43-.22.6-.39.17-.16.3-.35.4-.58.1-.23.14-.47.14-.75 0-.3-.05-.56-.16-.8s-.25-.43-.43-.6c-.18-.16-.39-.28-.64-.37-.25-.09-.51-.13-.8-.13h-1.72v3.76h1.86l.01.01ZM195.587 188.5v3.47h4.34v.62h-5.04v-8.53h5.01v.62h-4.31v3.21h3.77v.62h-3.77v-.01ZM204.57 186.54c.11-.12.25-.18.43-.18s.34.06.45.17c.11.11.16.26.16.42 0 .16-.06.3-.17.41-.11.11-.26.17-.44.17s-.33-.06-.43-.17a.6.6 0 0 1-.16-.41c0-.16.05-.3.16-.42v.01Zm0 5.13c.11-.12.25-.18.43-.18s.34.06.45.17c.11.11.16.26.16.42 0 .16-.06.3-.17.41-.11.11-.26.17-.44.17s-.33-.06-.43-.17a.6.6 0 0 1-.16-.41c0-.16.05-.3.16-.42v.01ZM128.898 193.77v-.59h79.21v.59h-79.21Z" fill="#000"/><path d="M798.568 196.29h-56.75c-19.68-.79-19.71-28.89 0-29.69h56.75c8.2 0 14.85 6.65 14.85 14.85s-6.65 14.85-14.85 14.85v-.01ZM519.138 507.45h-56.75c-19.68-.79-19.71-28.89 0-29.69h56.75c8.2 0 14.85 6.65 14.85 14.85s-6.65 14.85-14.85 14.85v-.01ZM559 279.21a8.75 8.75 0 1 0-.001-17.501A8.75 8.75 0 0 0 559 279.21Z" stroke="#000" stroke-width=".5" stroke-miterlimit="10"/><path d="m575.919 273.12-40.13 40.13c-14.48 13.36-34.37-6.5-21-21l40.13-40.13c5.8-5.8 15.2-5.8 21 0 5.8 5.8 5.8 15.2 0 21ZM244.36 59.83h-42.93v42.93h42.93V59.83ZM504.54 77.19c0 3.27-.99 6.31-2.69 8.83-2.85 4.25-7.69 7.05-13.2 7.05-8.77 0-15.88-7.11-15.88-15.88s7.11-15.88 15.88-15.88c5.57 0 10.46 2.88 13.3 7.22 1.62 2.49 2.58 5.46 2.58 8.67l.01-.01Z" stroke="#000" stroke-width=".5" stroke-miterlimit="10"/><path d="M901.938 69.74v15.2c0 1.04-.85 1.88-1.89 1.88h-4.52v.43a2.69 2.69 0 0 1-2.69 2.69h-10.18a2.7 2.7 0 0 1-2.7-2.69v-.43h-4.95v.43a2.69 2.69 0 0 1-2.69 2.69h-10.18a2.7 2.7 0 0 1-2.7-2.69v-.43h-4.95v.43a2.69 2.69 0 0 1-2.69 2.69h-10.18a2.7 2.7 0 0 1-2.7-2.69v-.43h-4.95v.43a2.69 2.69 0 0 1-2.69 2.69h-10.18a2.7 2.7 0 0 1-2.7-2.69v-.43h-4.95v.43a2.69 2.69 0 0 1-2.69 2.69h-10.18a2.7 2.7 0 0 1-2.7-2.69v-.43h-4.95v.43a2.69 2.69 0 0 1-2.69 2.69h-10.19a2.69 2.69 0 0 1-2.69-2.69v-.43h-4.95v.43a2.69 2.69 0 0 1-2.69 2.69h-10.19a2.69 2.69 0 0 1-2.69-2.69v-.43h-4.95v.43a2.69 2.69 0 0 1-2.69 2.69h-10.19a2.69 2.69 0 0 1-2.69-2.69v-.43h-4.95v.43a2.69 2.69 0 0 1-2.69 2.69h-10.19a2.69 2.69 0 0 1-2.69-2.69v-.43h-4.95v.43a2.69 2.69 0 0 1-2.69 2.69h-10.19a2.69 2.69 0 0 1-2.69-2.69v-.43h-4.95v.43a2.69 2.69 0 0 1-2.69 2.69h-10.19a2.69 2.69 0 0 1-2.69-2.69v-.43h-4.95v.43a2.69 2.69 0 0 1-2.69 2.69h-10.19a2.69 2.69 0 0 1-2.69-2.69v-.43h-4.95v.43a2.69 2.69 0 0 1-2.69 2.69h-10.19a2.69 2.69 0 0 1-2.69-2.69v-.43h-4.95v.43a2.69 2.69 0 0 1-2.69 2.69h-10.19a2.69 2.69 0 0 1-2.69-2.69v-.43h-4.95v.43c0 1.49-1.21 2.69-2.7 2.69h-10.18a2.69 2.69 0 0 1-2.69-2.69v-.43h-4.95v.43c0 1.49-1.21 2.69-2.7 2.69h-10.18a2.69 2.69 0 0 1-2.69-2.69v-.43h-4.95v.43c0 1.49-1.21 2.69-2.7 2.69h-10.18a2.69 2.69 0 0 1-2.69-2.69v-.43h-4.95v.43c0 1.49-1.21 2.69-2.7 2.69h-10.18a2.69 2.69 0 0 1-2.69-2.69v-.43h-4.95v.43c0 1.49-1.21 2.69-2.7 2.69h-10.18a2.69 2.69 0 0 1-2.69-2.69v-.43h-7.07c-.64 0-1.2-.31-1.54-.8 1.7-2.53 2.69-5.56 2.69-8.83 0-3.27-.96-6.18-2.58-8.67.35-.41.86-.68 1.43-.68h7.07v-.42a2.69 2.69 0 0 1 2.69-2.69h10.18a2.7 2.7 0 0 1 2.7 2.69v.42h4.95v-.42a2.69 2.69 0 0 1 2.69-2.69h10.18a2.7 2.7 0 0 1 2.7 2.69v.42h4.95v-.42a2.69 2.69 0 0 1 2.69-2.69h10.18a2.7 2.7 0 0 1 2.7 2.69v.42h4.95v-.42a2.69 2.69 0 0 1 2.69-2.69h10.18a2.7 2.7 0 0 1 2.7 2.69v.42h4.95v-.42a2.69 2.69 0 0 1 2.69-2.69h10.18a2.7 2.7 0 0 1 2.7 2.69v.42h4.95v-.42a2.69 2.69 0 0 1 2.69-2.69h10.19a2.69 2.69 0 0 1 2.69 2.69v.42h4.95v-.42a2.69 2.69 0 0 1 2.69-2.69h10.19a2.69 2.69 0 0 1 2.69 2.69v.42h4.95v-.42a2.69 2.69 0 0 1 2.69-2.69h10.19a2.69 2.69 0 0 1 2.69 2.69v.42h4.95v-.42a2.69 2.69 0 0 1 2.69-2.69h10.19a2.69 2.69 0 0 1 2.69 2.69v.42h4.95v-.42a2.69 2.69 0 0 1 2.69-2.69h10.19a2.69 2.69 0 0 1 2.69 2.69v.42h4.95v-.42a2.69 2.69 0 0 1 2.69-2.69h10.19a2.69 2.69 0 0 1 2.69 2.69v.42h4.95v-.42a2.69 2.69 0 0 1 2.69-2.69h10.19a2.69 2.69 0 0 1 2.69 2.69v.42h4.95v-.42a2.69 2.69 0 0 1 2.69-2.69h10.19a2.69 2.69 0 0 1 2.69 2.69v.42h4.95v-.42a2.69 2.69 0 0 1 2.69-2.69h10.19a2.69 2.69 0 0 1 2.69 2.69v.42h4.95v-.42c0-1.49 1.21-2.69 2.7-2.69h10.18a2.69 2.69 0 0 1 2.69 2.69v.42h4.95v-.42c0-1.49 1.21-2.69 2.7-2.69h10.18a2.69 2.69 0 0 1 2.69 2.69v.42h4.95v-.42c0-1.49 1.21-2.69 2.7-2.69h10.18a2.69 2.69 0 0 1 2.69 2.69v.42h4.95v-.42c0-1.49 1.21-2.69 2.7-2.69h10.18a2.69 2.69 0 0 1 2.69 2.69v.42h4.95v-.42c0-1.49 1.21-2.69 2.7-2.69h10.18a2.69 2.69 0 0 1 2.69 2.69v.42h4.52c1.04 0 1.89.85 1.89 1.89v.01Z" stroke="#000" stroke-width=".5" stroke-miterlimit="10"/><path d="M518.589 80.71a3.37 3.37 0 1 0 0-6.74 3.37 3.37 0 0 0 0 6.74ZM539.069 80.71a3.37 3.37 0 1 0 0-6.74 3.37 3.37 0 0 0 0 6.74ZM559.55 80.71a3.37 3.37 0 1 0 0-6.74 3.37 3.37 0 0 0 0 6.74ZM580.03 80.71a3.37 3.37 0 1 0 0-6.74 3.37 3.37 0 0 0 0 6.74ZM600.511 80.71a3.37 3.37 0 1 0 0-6.74 3.37 3.37 0 0 0 0 6.74ZM620.991 80.71a3.37 3.37 0 1 0 0-6.74 3.37 3.37 0 0 0 0 6.74ZM641.468 80.71a3.37 3.37 0 1 0 0-6.74 3.37 3.37 0 0 0 0 6.74ZM661.948 80.71a3.37 3.37 0 1 0 0-6.74 3.37 3.37 0 0 0 0 6.74ZM682.429 80.71a3.37 3.37 0 1 0 0-6.74 3.37 3.37 0 0 0 0 6.74ZM702.909 80.71a3.37 3.37 0 1 0 0-6.74 3.37 3.37 0 0 0 0 6.74ZM723.39 80.71a3.37 3.37 0 1 0 0-6.74 3.37 3.37 0 0 0 0 6.74ZM743.87 80.71a3.37 3.37 0 1 0 0-6.74 3.37 3.37 0 0 0 0 6.74ZM764.35 80.71a3.37 3.37 0 1 0 .001-6.739 3.37 3.37 0 0 0-.001 6.74ZM784.831 80.71a3.37 3.37 0 1 0 0-6.74 3.37 3.37 0 0 0 0 6.74ZM805.319 80.71a3.37 3.37 0 1 0 0-6.74 3.37 3.37 0 0 0 0 6.74ZM825.8 80.71a3.37 3.37 0 1 0 0-6.74 3.37 3.37 0 0 0 0 6.74ZM846.28 80.71a3.37 3.37 0 1 0 0-6.74 3.37 3.37 0 0 0 0 6.74ZM866.761 80.71a3.37 3.37 0 1 0 0-6.74 3.37 3.37 0 0 0 0 6.74ZM887.241 80.71a3.37 3.37 0 1 0 0-6.74 3.37 3.37 0 0 0 0 6.74ZM428.899 117.21c0 3.27-.99 6.31-2.69 8.83-2.85 4.25-7.69 7.05-13.2 7.05-8.77 0-15.88-7.11-15.88-15.88s7.11-15.88 15.88-15.88c5.57 0 10.46 2.88 13.3 7.22 1.62 2.49 2.58 5.46 2.58 8.67l.01-.01Z" stroke="#000" stroke-width=".5" stroke-miterlimit="10"/><path d="M826.309 109.76v15.2c0 1.04-.85 1.88-1.89 1.88h-4.52v.43a2.69 2.69 0 0 1-2.69 2.69h-10.18a2.7 2.7 0 0 1-2.7-2.69v-.43h-4.95v.43a2.69 2.69 0 0 1-2.69 2.69h-10.18a2.7 2.7 0 0 1-2.7-2.69v-.43h-4.95v.43a2.69 2.69 0 0 1-2.69 2.69h-10.18a2.7 2.7 0 0 1-2.7-2.69v-.43h-4.95v.43a2.69 2.69 0 0 1-2.69 2.69h-10.18a2.7 2.7 0 0 1-2.7-2.69v-.43h-4.95v.43a2.69 2.69 0 0 1-2.69 2.69h-10.18a2.7 2.7 0 0 1-2.7-2.69v-.43h-4.95v.43a2.69 2.69 0 0 1-2.69 2.69h-10.19a2.69 2.69 0 0 1-2.69-2.69v-.43h-4.95v.43a2.69 2.69 0 0 1-2.69 2.69h-10.19a2.69 2.69 0 0 1-2.69-2.69v-.43h-4.95v.43a2.69 2.69 0 0 1-2.69 2.69h-10.19a2.69 2.69 0 0 1-2.69-2.69v-.43h-4.95v.43a2.69 2.69 0 0 1-2.69 2.69h-10.19a2.69 2.69 0 0 1-2.69-2.69v-.43h-4.95v.43a2.69 2.69 0 0 1-2.69 2.69h-10.19a2.69 2.69 0 0 1-2.69-2.69v-.43h-4.95v.43a2.69 2.69 0 0 1-2.69 2.69h-10.19a2.69 2.69 0 0 1-2.69-2.69v-.43h-4.95v.43a2.69 2.69 0 0 1-2.69 2.69h-10.19a2.69 2.69 0 0 1-2.69-2.69v-.43h-4.95v.43a2.69 2.69 0 0 1-2.69 2.69h-10.19a2.69 2.69 0 0 1-2.69-2.69v-.43h-4.95v.43a2.69 2.69 0 0 1-2.69 2.69h-10.19a2.69 2.69 0 0 1-2.69-2.69v-.43h-4.95v.43c0 1.49-1.21 2.69-2.7 2.69h-10.18a2.69 2.69 0 0 1-2.69-2.69v-.43h-4.95v.43c0 1.49-1.21 2.69-2.7 2.69h-10.18a2.69 2.69 0 0 1-2.69-2.69v-.43h-4.95v.43c0 1.49-1.21 2.69-2.7 2.69h-10.18a2.69 2.69 0 0 1-2.69-2.69v-.43h-4.95v.43c0 1.49-1.21 2.69-2.7 2.69h-10.18a2.69 2.69 0 0 1-2.69-2.69v-.43h-4.95v.43c0 1.49-1.21 2.69-2.7 2.69h-10.18a2.69 2.69 0 0 1-2.69-2.69v-.43h-7.07c-.64 0-1.2-.31-1.54-.8 1.7-2.53 2.69-5.56 2.69-8.83 0-3.27-.96-6.18-2.58-8.67.35-.41.86-.68 1.43-.68h7.07v-.42a2.69 2.69 0 0 1 2.69-2.69h10.18a2.7 2.7 0 0 1 2.7 2.69v.42h4.95v-.42a2.69 2.69 0 0 1 2.69-2.69h10.18a2.7 2.7 0 0 1 2.7 2.69v.42h4.95v-.42a2.69 2.69 0 0 1 2.69-2.69h10.18a2.7 2.7 0 0 1 2.7 2.69v.42h4.95v-.42a2.69 2.69 0 0 1 2.69-2.69h10.18a2.7 2.7 0 0 1 2.7 2.69v.42h4.95v-.42a2.69 2.69 0 0 1 2.69-2.69h10.18a2.7 2.7 0 0 1 2.7 2.69v.42h4.95v-.42a2.69 2.69 0 0 1 2.69-2.69h10.19a2.69 2.69 0 0 1 2.69 2.69v.42h4.95v-.42a2.69 2.69 0 0 1 2.69-2.69h10.19a2.69 2.69 0 0 1 2.69 2.69v.42h4.95v-.42a2.69 2.69 0 0 1 2.69-2.69h10.19a2.69 2.69 0 0 1 2.69 2.69v.42h4.95v-.42a2.69 2.69 0 0 1 2.69-2.69h10.19a2.69 2.69 0 0 1 2.69 2.69v.42h4.95v-.42a2.69 2.69 0 0 1 2.69-2.69h10.19a2.69 2.69 0 0 1 2.69 2.69v.42h4.95v-.42a2.69 2.69 0 0 1 2.69-2.69h10.19a2.69 2.69 0 0 1 2.69 2.69v.42h4.95v-.42a2.69 2.69 0 0 1 2.69-2.69h10.19a2.69 2.69 0 0 1 2.69 2.69v.42h4.95v-.42a2.69 2.69 0 0 1 2.69-2.69h10.19a2.69 2.69 0 0 1 2.69 2.69v.42h4.95v-.42a2.69 2.69 0 0 1 2.69-2.69h10.19a2.69 2.69 0 0 1 2.69 2.69v.42h4.95v-.42c0-1.49 1.21-2.69 2.7-2.69h10.18a2.69 2.69 0 0 1 2.69 2.69v.42h4.95v-.42c0-1.49 1.21-2.69 2.7-2.69h10.18a2.69 2.69 0 0 1 2.69 2.69v.42h4.95v-.42c0-1.49 1.21-2.69 2.7-2.69h10.18a2.69 2.69 0 0 1 2.69 2.69v.42h4.95v-.42c0-1.49 1.21-2.69 2.7-2.69h10.18a2.69 2.69 0 0 1 2.69 2.69v.42h4.95v-.42c0-1.49 1.21-2.69 2.7-2.69h10.18a2.69 2.69 0 0 1 2.69 2.69v.42h4.52c1.04 0 1.89.85 1.89 1.89v.01Z" stroke="#000" stroke-width=".5" stroke-miterlimit="10"/><path d="M442.948 120.73a3.37 3.37 0 1 0 0-6.74 3.37 3.37 0 0 0 0 6.74ZM463.429 120.73a3.37 3.37 0 1 0 0-6.74 3.37 3.37 0 0 0 0 6.74ZM483.909 120.73a3.37 3.37 0 1 0 0-6.74 3.37 3.37 0 0 0 0 6.74ZM504.397 120.73a3.37 3.37 0 1 0 0-6.74 3.37 3.37 0 0 0 0 6.74ZM524.878 120.73a3.37 3.37 0 1 0 0-6.74 3.37 3.37 0 0 0 0 6.74ZM545.358 120.73a3.37 3.37 0 1 0 0-6.74 3.37 3.37 0 0 0 0 6.74ZM565.839 120.73a3.37 3.37 0 1 0 0-6.74 3.37 3.37 0 0 0 0 6.74ZM586.319 120.73a3.37 3.37 0 1 0 0-6.74 3.37 3.37 0 0 0 0 6.74ZM606.8 120.73a3.37 3.37 0 1 0 0-6.74 3.37 3.37 0 0 0 0 6.74ZM627.28 120.73a3.37 3.37 0 1 0 0-6.74 3.37 3.37 0 0 0 0 6.74ZM647.761 120.73a3.37 3.37 0 1 0 0-6.74 3.37 3.37 0 0 0 0 6.74ZM668.237 120.73a3.37 3.37 0 1 0 0-6.74 3.37 3.37 0 0 0 0 6.74ZM688.718 120.73a3.37 3.37 0 1 0 0-6.74 3.37 3.37 0 0 0 0 6.74ZM709.198 120.73a3.37 3.37 0 1 0 0-6.74 3.37 3.37 0 0 0 0 6.74ZM729.679 120.73a3.37 3.37 0 1 0 0-6.74 3.37 3.37 0 0 0 0 6.74ZM750.159 120.73a3.37 3.37 0 1 0 0-6.74 3.37 3.37 0 0 0 0 6.74ZM770.64 120.73a3.37 3.37 0 1 0 0-6.74 3.37 3.37 0 0 0 0 6.74ZM791.12 120.73a3.37 3.37 0 1 0 0-6.74 3.37 3.37 0 0 0 0 6.74ZM811.6 120.73a3.37 3.37 0 1 0 0-6.74 3.37 3.37 0 0 0 0 6.74Z" stroke="#000" stroke-width=".5" stroke-miterlimit="10"/><path d="M484.422 552.96c0 .4-.07.77-.21 1.12a2.776 2.776 0 0 1-1.46 1.53c-.34.15-.71.23-1.12.23-.41 0-.79-.07-1.13-.22-.34-.15-.63-.35-.87-.62a2.975 2.975 0 0 1-.78-2.03v-5.78h1.04l.02 5.78a2.235 2.235 0 0 0 .45 1.35c.14.18.32.32.53.43.21.11.46.16.74.16.28 0 .52-.05.73-.16.21-.11.39-.25.53-.44.14-.18.25-.39.32-.62.07-.23.12-.48.12-.73l.02-5.78h1.05v5.78h.02ZM486.25 549.37h.97l.08.94c.09-.13.2-.25.31-.37.11-.12.23-.21.35-.29.19-.12.39-.22.61-.29.22-.07.45-.1.7-.11.33 0 .63.05.91.14.28.09.5.24.69.44.19.2.34.45.44.76.1.31.16.67.16 1.09v4.03h-1.08v-4c0-.28-.03-.52-.09-.71a1.057 1.057 0 0 0-.73-.73 2.2 2.2 0 0 0-1.17 0c-.18.05-.33.13-.47.23-.12.09-.23.19-.33.3-.1.11-.19.24-.26.38v4.55h-1.08v-6.34l-.01-.02ZM496.861 549.37v5.4h2.07v.94h-5.31v-.94h2.16v-4.46h-2.16v-.94h3.24Zm-1.18-1.93a.561.561 0 0 1 .34-.33c.08-.03.17-.04.27-.04s.19.01.27.04c.08.03.14.07.19.12.06.05.11.12.14.21.03.09.05.17.05.27 0 .18-.05.32-.16.44s-.27.18-.49.18c-.22 0-.38-.06-.49-.18a.613.613 0 0 1-.16-.44c0-.09.01-.18.04-.26v-.01ZM500.211 549.37h1.11l1.82 4.78.1.39.11-.39 1.78-4.78h1.11l-2.58 6.34h-.83l-2.61-6.34h-.01ZM509.433 555.6c-.37-.15-.69-.37-.96-.64s-.47-.6-.62-.97c-.15-.37-.22-.78-.22-1.22v-.25c0-.51.08-.97.25-1.37.17-.4.38-.75.66-1.03.27-.28.58-.49.92-.64.34-.15.7-.22 1.06-.22.46 0 .86.08 1.2.24.34.16.63.38.85.65.23.28.4.61.51.99.11.38.17.79.17 1.23v.49h-4.53v.04c.03.31.09.58.18.81.09.23.23.44.4.62.17.19.38.34.62.45.24.11.51.16.8.16.39 0 .73-.08 1.03-.23.3-.15.55-.36.75-.62l.66.52c-.21.32-.53.6-.95.85-.42.25-.94.37-1.56.37-.45 0-.85-.08-1.23-.23h.01Zm.47-5.33c-.2.08-.37.2-.53.35-.16.16-.29.35-.4.57-.11.22-.18.48-.23.78h3.41v-.05c0-.2-.04-.41-.11-.63a1.79 1.79 0 0 0-.31-.58c-.13-.16-.3-.3-.5-.4-.2-.1-.44-.15-.72-.15-.22 0-.43.04-.62.12l.01-.01ZM519.831 549.29c.22.03.38.06.49.11l-.15 1.06a4.69 4.69 0 0 0-.6-.1c-.19-.02-.39-.03-.59-.03-.27 0-.51.03-.72.1-.21.07-.4.16-.56.28-.14.11-.27.24-.38.4-.11.16-.2.33-.27.53v4.07h-1.09v-6.34h1.03l.05.85v.16c.26-.35.57-.62.93-.82.36-.2.77-.3 1.23-.3.2 0 .41.01.62.04l.01-.01ZM526.391 553.68c-.05-.1-.14-.2-.26-.28-.12-.08-.28-.17-.48-.24-.2-.07-.45-.14-.74-.2-.36-.07-.69-.16-.99-.27-.3-.11-.55-.23-.76-.38a1.73 1.73 0 0 1-.5-.51 1.29 1.29 0 0 1-.18-.69c0-.26.06-.5.18-.72.12-.22.29-.42.51-.59.22-.17.48-.3.78-.4.3-.1.64-.15 1-.15.39 0 .74.05 1.05.15.31.1.58.24.8.42.22.18.39.39.51.63s.18.5.18.78h-1.08a.83.83 0 0 0-.11-.4c-.07-.13-.17-.25-.29-.35-.12-.1-.28-.18-.45-.25-.17-.07-.38-.09-.6-.09-.22 0-.43.03-.61.08s-.32.12-.43.21c-.12.09-.21.19-.26.3-.05.11-.09.23-.09.35 0 .12.02.24.07.33.05.09.13.19.25.26.11.08.27.15.46.21s.44.12.74.18c.39.08.74.18 1.05.28.31.1.57.24.78.38.21.15.37.33.48.53.11.2.17.43.17.69 0 .28-.06.54-.19.77-.13.23-.3.43-.53.59-.23.16-.5.29-.81.38-.31.09-.66.13-1.04.13-.43 0-.81-.06-1.15-.17-.34-.11-.62-.27-.85-.46-.23-.19-.41-.41-.54-.66-.13-.25-.18-.51-.18-.78h1.08c.02.22.08.41.18.56.1.15.23.28.39.37.15.09.32.16.51.2.19.04.37.06.56.06.29 0 .54-.03.76-.1.22-.07.38-.16.5-.28.07-.07.13-.16.17-.25a.784.784 0 0 0-.02-.64l-.02.02ZM532.873 549.37v5.4h2.07v.94h-5.31v-.94h2.16v-4.46h-2.16v-.94h3.24Zm-1.18-1.93a.561.561 0 0 1 .34-.33c.08-.03.17-.04.27-.04s.19.01.27.04c.08.03.14.07.19.12.06.05.11.12.14.21.03.09.05.17.05.27 0 .18-.05.32-.16.44s-.27.18-.49.18c-.22 0-.38-.06-.49-.18a.613.613 0 0 1-.16-.44c0-.09.01-.18.04-.26v-.01ZM539.223 549.37h2.41v.84h-2.41v3.45c0 .25.03.45.09.61.06.16.15.29.26.38.11.1.24.17.38.21.14.04.29.06.45.06.12 0 .24 0 .36-.02s.25-.03.37-.05c.12-.02.23-.04.33-.06.1-.02.19-.04.25-.06l.15.77c-.09.05-.2.1-.33.14-.13.04-.27.08-.42.1-.15.03-.31.05-.48.07-.17.02-.34.02-.51.02-.28 0-.54-.04-.79-.12-.25-.08-.46-.21-.64-.38s-.32-.4-.42-.67c-.1-.27-.16-.61-.16-1v-3.45h-1.66v-.84h1.66v-1.54h1.09v1.54h.02ZM544.012 558.24c-.14-.02-.24-.04-.31-.06l.18-.88c.1 0 .19.01.29.02.1.01.17 0 .23 0 .15 0 .28-.04.41-.12.13-.08.23-.18.33-.29.09-.11.17-.23.24-.35.07-.12.12-.22.16-.3l.43-.84-2.73-6.04h1.21l1.74 4.09.28.77.3-.74 1.63-4.11h1.21l-3.22 7.32c-.07.16-.17.34-.28.52-.11.18-.25.35-.42.51-.17.16-.36.29-.57.39a1.775 1.775 0 0 1-1.12.12l.01-.01ZM558.163 551.21c.13-.39.32-.73.57-1.02.25-.29.55-.52.9-.68.35-.16.76-.25 1.2-.25.44 0 .85.08 1.21.25.36.17.66.39.91.68.25.29.44.63.57 1.02.13.39.2.82.2 1.27v.13c0 .46-.07.88-.2 1.27s-.32.73-.57 1.02c-.25.29-.55.52-.91.68-.36.16-.76.25-1.2.25-.44 0-.85-.08-1.21-.25-.36-.17-.66-.39-.91-.68-.25-.29-.44-.63-.57-1.02-.13-.39-.2-.81-.2-1.27v-.13c0-.46.07-.88.2-1.27h.01Zm1 2.3c.07.28.19.53.34.75.15.21.34.38.56.51.22.13.49.19.79.19.3 0 .56-.06.78-.19.22-.13.41-.29.57-.51.15-.21.26-.46.33-.75s.11-.58.11-.89v-.13c0-.31-.04-.6-.11-.89-.07-.29-.19-.53-.34-.75-.15-.21-.34-.39-.57-.51-.23-.12-.49-.19-.79-.19-.3 0-.56.06-.79.19-.23.13-.41.3-.56.51-.15.21-.27.46-.34.75s-.11.58-.11.89v.13c0 .31.04.61.11.89h.02ZM567.082 550.21h-1.75v-.84h1.75v-.45c0-.41.06-.76.18-1.07.12-.31.29-.56.51-.77.21-.21.47-.36.78-.47.31-.11.64-.16 1.02-.16.16 0 .31 0 .46.03.15.03.3.04.45.07.1.02.2.04.29.06.09.02.2.05.3.07l-.13.9c-.16-.05-.35-.1-.56-.14-.21-.04-.44-.06-.68-.06-.24 0-.46.03-.65.09s-.35.15-.47.27c-.13.12-.23.29-.3.49-.07.2-.1.43-.1.7v.45h2.44v.84h-2.44v5.5h-1.09v-5.5l-.01-.01ZM584.153 552.89c-.12-.18-.27-.33-.46-.46-.19-.12-.39-.22-.62-.3-.23-.08-.44-.16-.65-.22-.3-.1-.61-.22-.92-.35a4.22 4.22 0 0 1-.85-.5c-.26-.2-.47-.43-.63-.71-.16-.28-.24-.59-.24-.96s.08-.7.24-.98c.16-.28.37-.53.64-.73.27-.2.56-.35.89-.45.33-.1.67-.16 1-.16.37 0 .73.06 1.07.18.34.12.65.3.91.52.26.22.48.49.64.81.16.32.24.67.25 1.06h-1.11c-.03-.25-.09-.47-.18-.67-.09-.2-.21-.37-.36-.52-.15-.15-.33-.26-.53-.34a2.095 2.095 0 0 0-1.3-.03c-.2.06-.37.15-.52.26-.16.12-.28.26-.37.43-.09.17-.14.37-.14.6 0 .25.07.45.19.62.12.17.28.31.46.43s.38.21.6.29c.22.08.42.15.61.21.32.1.63.22.95.35.32.13.61.32.87.53a2.141 2.141 0 0 1 .86 1.73c0 .38-.08.72-.25 1-.17.28-.39.52-.66.71-.27.19-.57.33-.91.43-.34.1-.68.14-1.02.14-.41 0-.81-.07-1.2-.21-.39-.14-.73-.33-1.02-.59a2.43 2.43 0 0 1-.61-.78c-.15-.3-.23-.63-.24-1h1.11c.04.27.11.5.22.71.11.21.25.38.42.52.17.14.37.25.59.33.22.08.47.11.74.11.21 0 .42-.03.62-.08s.39-.14.55-.25c.16-.11.29-.25.39-.42.1-.17.15-.37.15-.61 0-.26-.06-.48-.18-.66v.01ZM590.342 554.86c.19-.06.35-.15.5-.26.14-.11.26-.24.35-.39.09-.15.13-.31.14-.49h1.03c0 .28-.08.55-.22.81s-.33.48-.57.67c-.24.2-.51.35-.82.47-.31.12-.63.17-.97.17-.48 0-.9-.09-1.26-.26s-.66-.4-.9-.7a2.93 2.93 0 0 1-.54-1c-.12-.38-.18-.78-.18-1.2v-.25c0-.42.06-.82.18-1.2s.3-.72.54-1.01c.24-.29.54-.52.9-.69.36-.17.78-.26 1.26-.26a2.819 2.819 0 0 1 1.85.66c.23.21.4.45.53.73.13.28.19.58.19.9h-1.03c0-.19-.05-.37-.13-.54a1.454 1.454 0 0 0-.82-.75c-.19-.07-.39-.11-.61-.11-.34 0-.62.07-.85.2-.23.13-.41.31-.55.52-.14.22-.24.46-.3.73-.06.27-.09.54-.09.81v.25c0 .28.03.55.09.82.06.27.16.51.3.73.14.22.32.4.55.53.23.13.51.2.85.2.2 0 .39-.03.57-.09h.01ZM597.681 549.37v5.4h2.07v.94h-5.31v-.94h2.16v-4.46h-2.16v-.94h3.24Zm-1.18-1.93a.561.561 0 0 1 .34-.33c.08-.03.17-.04.27-.04s.19.01.27.04c.08.03.14.07.19.12.06.05.11.12.14.21.03.09.05.17.05.27 0 .18-.05.32-.16.44s-.27.18-.49.18c-.22 0-.38-.06-.49-.18a.613.613 0 0 1-.16-.44c0-.09.01-.18.04-.26v-.01ZM603.042 555.6c-.37-.15-.69-.37-.96-.64s-.47-.6-.62-.97c-.15-.37-.22-.78-.22-1.22v-.25c0-.51.08-.97.25-1.37.17-.4.38-.75.66-1.03.27-.28.58-.49.92-.64.34-.15.7-.22 1.06-.22.46 0 .86.08 1.2.24.34.16.63.38.85.65.23.28.4.61.51.99.11.38.17.79.17 1.23v.49h-4.53v.04c.03.31.09.58.18.81.09.23.23.44.4.62.17.19.38.34.62.45.24.11.51.16.8.16.39 0 .73-.08 1.03-.23.3-.15.55-.36.75-.62l.66.52c-.21.32-.53.6-.95.85-.42.25-.94.37-1.56.37-.45 0-.85-.08-1.23-.23h.01Zm.47-5.33c-.2.08-.37.2-.53.35-.16.16-.29.35-.4.57-.11.22-.18.48-.23.78h3.41v-.05c0-.2-.04-.41-.11-.63a1.79 1.79 0 0 0-.31-.58c-.13-.16-.3-.3-.5-.4-.2-.1-.44-.15-.72-.15-.22 0-.43.04-.62.12l.01-.01ZM608.672 549.37h.97l.08.94c.09-.13.2-.25.31-.37.11-.12.23-.21.35-.29.19-.12.39-.22.61-.29.22-.07.45-.1.7-.11.33 0 .63.05.91.14.28.09.5.24.69.44.19.2.34.45.44.76.1.31.16.67.16 1.09v4.03h-1.08v-4c0-.28-.03-.52-.09-.71a1.057 1.057 0 0 0-.73-.73 2.2 2.2 0 0 0-1.17 0c-.18.05-.33.13-.47.23-.12.09-.23.19-.33.3-.1.11-.19.24-.26.38v4.55h-1.08v-6.34l-.01-.02ZM619.143 554.86c.19-.06.35-.15.5-.26.14-.11.26-.24.35-.39.09-.15.13-.31.14-.49h1.03c0 .28-.08.55-.22.81s-.33.48-.57.67c-.24.2-.51.35-.82.47-.31.12-.63.17-.97.17-.48 0-.9-.09-1.26-.26s-.66-.4-.9-.7a2.93 2.93 0 0 1-.54-1c-.12-.38-.18-.78-.18-1.2v-.25c0-.42.06-.82.18-1.2s.3-.72.54-1.01c.24-.29.54-.52.9-.69.36-.17.78-.26 1.26-.26a2.819 2.819 0 0 1 1.85.66c.23.21.4.45.53.73.13.28.19.58.19.9h-1.03c0-.19-.05-.37-.13-.54a1.454 1.454 0 0 0-.82-.75c-.19-.07-.39-.11-.61-.11-.34 0-.62.07-.85.2-.23.13-.41.31-.55.52-.14.22-.24.46-.3.73-.06.27-.09.54-.09.81v.25c0 .28.03.55.09.82.06.27.16.51.3.73.14.22.32.4.55.53.23.13.51.2.85.2.2 0 .39-.03.57-.09h.01ZM624.652 555.6c-.37-.15-.69-.37-.96-.64s-.47-.6-.62-.97c-.15-.37-.22-.78-.22-1.22v-.25c0-.51.08-.97.25-1.37.17-.4.38-.75.66-1.03.27-.28.58-.49.92-.64.34-.15.7-.22 1.06-.22.46 0 .86.08 1.2.24.34.16.63.38.85.65.23.28.4.61.51.99.11.38.17.79.17 1.23v.49h-4.53v.04c.03.31.09.58.18.81.09.23.23.44.4.62.17.19.38.34.62.45.24.11.51.16.8.16.39 0 .73-.08 1.03-.23.3-.15.55-.36.75-.62l.66.52c-.21.32-.53.6-.95.85-.42.25-.94.37-1.56.37-.45 0-.85-.08-1.23-.23h.01Zm.47-5.33c-.2.08-.37.2-.53.35-.16.16-.29.35-.4.57-.11.22-.18.48-.23.78h3.41v-.05c0-.2-.04-.41-.11-.63a1.79 1.79 0 0 0-.31-.58c-.13-.16-.3-.3-.5-.4-.2-.1-.44-.15-.72-.15-.22 0-.43.04-.62.12l.01-.01ZM637.2 552.8c.08-.22.19-.43.33-.63.12-.16.26-.32.42-.47.16-.15.33-.29.52-.44l.21-.15c-.14-.2-.27-.38-.39-.57a3.103 3.103 0 0 1-.42-.98c-.04-.15-.05-.3-.05-.46 0-.33.05-.63.15-.88.1-.25.24-.47.42-.65.18-.17.4-.3.66-.39.26-.09.55-.13.87-.13a1.874 1.874 0 0 1 1.34.54c.16.17.28.36.36.58.08.22.13.45.13.69 0 .21-.03.4-.09.57-.06.17-.14.33-.25.48-.11.15-.24.29-.39.42-.15.13-.31.26-.48.39l-.55.47 1.8 2.36c.14-.25.24-.52.32-.82.08-.3.12-.62.12-.96h.98c0 .5-.07.96-.21 1.39-.14.43-.35.81-.62 1.16l1.06 1.39h-1.29l-.49-.64c-.11.09-.22.18-.34.26a2.93 2.93 0 0 1-1.02.43c-.23.05-.46.08-.69.08-.39 0-.74-.06-1.05-.17-.31-.11-.58-.27-.8-.47-.22-.2-.39-.45-.51-.73-.12-.28-.18-.59-.18-.93 0-.26.04-.5.12-.73l.01-.01Zm2.89 2.1c.16-.04.31-.09.45-.15.11-.05.21-.1.31-.17s.2-.14.29-.21l-1.89-2.53-.16.14c-.2.16-.35.32-.47.47-.12.15-.21.29-.28.43-.07.14-.11.26-.13.37a1.575 1.575 0 0 0 .06.84c.06.18.15.32.28.45.13.13.27.23.45.3.18.07.39.11.63.11.16 0 .32-.02.47-.05h-.01Zm-1.14-5.5c.02.1.05.2.09.3a3.39 3.39 0 0 0 .44.8l.69-.54c.12-.08.22-.17.3-.26.08-.09.14-.18.18-.28a1.407 1.407 0 0 0 .12-.56 1.08 1.08 0 0 0-.22-.64.86.86 0 0 0-.26-.2.784.784 0 0 0-.35-.08c-.17 0-.32.03-.44.09a.95.95 0 0 0-.31.25c-.09.11-.15.23-.19.37-.04.14-.06.29-.06.44 0 .1 0 .2.03.3l-.02.01ZM654.991 548.11v7.61h-1.05v-7.61h-2.64v-.93h6.33v.93h-2.64ZM660.652 555.6c-.37-.15-.69-.37-.96-.64s-.47-.6-.62-.97c-.15-.37-.22-.78-.22-1.22v-.25c0-.51.08-.97.25-1.37.17-.4.38-.75.66-1.03.27-.28.58-.49.92-.64.34-.15.7-.22 1.06-.22.46 0 .86.08 1.2.24.34.16.63.38.85.65.23.28.4.61.51.99.11.38.17.79.17 1.23v.49h-4.53v.04c.03.31.09.58.18.81.09.23.23.44.4.62.17.19.38.34.62.45.24.11.51.16.8.16.39 0 .73-.08 1.03-.23.3-.15.55-.36.75-.62l.66.52c-.21.32-.53.6-.95.85-.42.25-.94.37-1.56.37-.45 0-.85-.08-1.23-.23h.01Zm.47-5.33c-.2.08-.37.2-.53.35-.16.16-.29.35-.4.57-.11.22-.18.48-.23.78h3.41v-.05c0-.2-.04-.41-.11-.63a1.79 1.79 0 0 0-.31-.58c-.13-.16-.3-.3-.5-.4-.2-.1-.44-.15-.72-.15-.22 0-.43.04-.62.12l.01-.01ZM669.553 554.86c.19-.06.35-.15.5-.26.14-.11.26-.24.35-.39.09-.15.13-.31.14-.49h1.03c0 .28-.08.55-.22.81s-.33.48-.57.67c-.24.2-.51.35-.82.47-.31.12-.63.17-.97.17-.48 0-.9-.09-1.26-.26s-.66-.4-.9-.7a2.93 2.93 0 0 1-.54-1c-.12-.38-.18-.78-.18-1.2v-.25c0-.42.06-.82.18-1.2s.3-.72.54-1.01c.24-.29.54-.52.9-.69.36-.17.78-.26 1.26-.26a2.819 2.819 0 0 1 1.85.66c.23.21.4.45.53.73.13.28.19.58.19.9h-1.03c0-.19-.05-.37-.13-.54a1.454 1.454 0 0 0-.82-.75c-.19-.07-.39-.11-.61-.11-.34 0-.62.07-.85.2-.23.13-.41.31-.55.52-.14.22-.24.46-.3.73-.06.27-.09.54-.09.81v.25c0 .28.03.55.09.82.06.27.16.51.3.73.14.22.32.4.55.53.23.13.51.2.85.2.2 0 .39-.03.57-.09h.01ZM674.853 549.96c.11-.11.22-.2.33-.28.19-.14.39-.24.62-.31.23-.07.46-.11.72-.11.33 0 .63.05.91.14.28.09.5.25.69.45.19.2.34.46.44.77.1.31.16.68.16 1.1v3.99h-1.08v-4c0-.25-.03-.47-.09-.66-.06-.19-.14-.35-.26-.47-.12-.14-.27-.24-.46-.31s-.39-.1-.63-.1c-.2 0-.38.03-.56.08-.18.05-.34.13-.49.23-.12.08-.23.17-.33.27s-.19.22-.27.34v4.61h-1.08v-9h1.08v3.6a2 2 0 0 1 .29-.35l.01.01ZM680.68 549.37h.97l.08.94c.09-.13.2-.25.31-.37.11-.12.23-.21.35-.29.19-.12.39-.22.61-.29.22-.07.45-.1.7-.11.33 0 .63.05.91.14.28.09.5.24.69.44.19.2.34.45.44.76.1.31.16.67.16 1.09v4.03h-1.08v-4c0-.28-.03-.52-.09-.71a1.057 1.057 0 0 0-.73-.73 2.2 2.2 0 0 0-1.17 0c-.18.05-.33.13-.47.23-.12.09-.23.19-.33.3-.1.11-.19.24-.26.38v4.55h-1.08v-6.34l-.01-.02ZM687.78 551.21c.13-.39.32-.73.57-1.02.25-.29.55-.52.9-.68.35-.16.76-.25 1.2-.25.44 0 .85.08 1.21.25.36.17.66.39.91.68.25.29.44.63.57 1.02.13.39.2.82.2 1.27v.13c0 .46-.07.88-.2 1.27s-.32.73-.57 1.02c-.25.29-.55.52-.91.68-.36.16-.76.25-1.2.25-.44 0-.85-.08-1.21-.25-.36-.17-.66-.39-.91-.68-.25-.29-.44-.63-.57-1.02-.13-.39-.2-.81-.2-1.27v-.13c0-.46.07-.88.2-1.27h.01Zm1 2.3c.07.28.19.53.34.75.15.21.34.38.56.51.22.13.49.19.79.19.3 0 .56-.06.78-.19.22-.13.41-.29.57-.51.15-.21.26-.46.33-.75s.11-.58.11-.89v-.13c0-.31-.04-.6-.11-.89-.07-.29-.19-.53-.34-.75-.15-.21-.34-.39-.57-.51-.23-.12-.49-.19-.79-.19-.3 0-.56.06-.79.19-.23.13-.41.3-.56.51-.15.21-.27.46-.34.75s-.11.58-.11.89v.13c0 .31.04.61.11.89h.02ZM698.49 546.71v8.06h2.07v.94h-5.31v-.94h2.16v-7.12h-2.16v-.94h3.24ZM702.183 551.21c.13-.39.32-.73.57-1.02.25-.29.55-.52.9-.68.35-.16.76-.25 1.2-.25.44 0 .85.08 1.21.25.36.17.66.39.91.68.25.29.44.63.57 1.02.13.39.2.82.2 1.27v.13c0 .46-.07.88-.2 1.27s-.32.73-.57 1.02c-.25.29-.55.52-.91.68-.36.16-.76.25-1.2.25-.44 0-.85-.08-1.21-.25-.36-.17-.66-.39-.91-.68-.25-.29-.44-.63-.57-1.02-.13-.39-.2-.81-.2-1.27v-.13c0-.46.07-.88.2-1.27h.01Zm1 2.3c.07.28.19.53.34.75.15.21.34.38.56.51.22.13.49.19.79.19.3 0 .56-.06.78-.19.22-.13.41-.29.57-.51.15-.21.26-.46.33-.75s.11-.58.11-.89v-.13c0-.31-.04-.6-.11-.89-.07-.29-.19-.53-.34-.75-.15-.21-.34-.39-.57-.51-.23-.12-.49-.19-.79-.19-.3 0-.56.06-.79.19-.23.13-.41.3-.56.51-.15.21-.27.46-.34.75s-.11.58-.11.89v.13c0 .31.04.61.11.89h.02ZM709.461 551.18c.12-.4.28-.74.5-1.02.22-.28.48-.51.8-.67.32-.16.67-.24 1.06-.24.25 0 .49.03.7.09.21.06.41.14.58.26.09.06.18.13.27.21.09.08.16.16.24.26l.05-.69h.98v6.21c0 .42-.07.79-.2 1.11-.13.32-.31.6-.55.83-.24.23-.52.4-.85.52-.33.12-.69.18-1.09.18-.16 0-.35-.02-.56-.06-.21-.04-.42-.1-.64-.18-.22-.08-.43-.19-.63-.33s-.37-.31-.52-.52l.56-.65c.13.16.27.3.41.41a1.955 1.955 0 0 0 1.29.45c.26 0 .49-.04.7-.11.21-.07.38-.18.53-.33.14-.14.26-.32.33-.53.07-.21.12-.45.12-.73v-.54c-.08.09-.17.18-.26.26-.09.08-.19.15-.3.21a2.332 2.332 0 0 1-1.18.28c-.39 0-.74-.08-1.05-.25-.31-.17-.58-.39-.79-.68-.22-.29-.39-.63-.5-1.02-.11-.39-.18-.82-.18-1.27v-.12c0-.47.06-.91.17-1.3l.01-.04Zm1.01 2.31c.06.28.17.52.31.73.14.21.31.38.53.5.22.12.47.18.77.18a1.613 1.613 0 0 0 .92-.26 1.75 1.75 0 0 0 .57-.67v-2.91c-.07-.13-.15-.25-.25-.36-.1-.11-.2-.21-.32-.29-.12-.08-.26-.14-.4-.18-.14-.04-.31-.07-.49-.07-.3 0-.57.06-.78.19-.21.13-.39.29-.53.5-.14.21-.24.46-.31.74-.07.28-.1.57-.1.88v.12c0 .31.03.6.1.88l-.02.02ZM716.84 558.24c-.14-.02-.24-.04-.31-.06l.18-.88c.1 0 .19.01.29.02.1.01.17 0 .23 0 .15 0 .28-.04.41-.12.13-.08.23-.18.33-.29.09-.11.17-.23.24-.35.07-.12.12-.22.16-.3l.43-.84-2.73-6.04h1.21l1.74 4.09.28.77.3-.74 1.63-4.11h1.21l-3.22 7.32c-.07.16-.17.34-.28.52-.11.18-.25.35-.42.51-.17.16-.36.29-.57.39a1.775 1.775 0 0 1-1.12.12l.01-.01ZM730.983 551.21c.13-.39.32-.73.57-1.02.25-.29.55-.52.9-.68.35-.16.76-.25 1.2-.25.44 0 .85.08 1.21.25.36.17.66.39.91.68.25.29.44.63.57 1.02.13.39.2.82.2 1.27v.13c0 .46-.07.88-.2 1.27s-.32.73-.57 1.02c-.25.29-.55.52-.91.68-.36.16-.76.25-1.2.25-.44 0-.85-.08-1.21-.25-.36-.17-.66-.39-.91-.68-.25-.29-.44-.63-.57-1.02-.13-.39-.2-.81-.2-1.27v-.13c0-.46.07-.88.2-1.27h.01Zm1 2.3c.07.28.19.53.34.75.15.21.34.38.56.51.22.13.49.19.79.19.3 0 .56-.06.78-.19.22-.13.41-.29.57-.51.15-.21.26-.46.33-.75s.11-.58.11-.89v-.13c0-.31-.04-.6-.11-.89-.07-.29-.19-.53-.34-.75-.15-.21-.34-.39-.57-.51-.23-.12-.49-.19-.79-.19-.3 0-.56.06-.79.19-.23.13-.41.3-.56.51-.15.21-.27.46-.34.75s-.11.58-.11.89v.13c0 .31.04.61.11.89h.02ZM739.91 550.21h-1.75v-.84h1.75v-.45c0-.41.06-.76.18-1.07.12-.31.29-.56.51-.77.21-.21.47-.36.78-.47.31-.11.64-.16 1.02-.16.16 0 .31 0 .46.03.15.03.3.04.45.07.1.02.2.04.29.06.09.02.2.05.3.07l-.13.9c-.16-.05-.35-.1-.56-.14-.21-.04-.44-.06-.68-.06-.24 0-.46.03-.65.09s-.35.15-.47.27c-.13.12-.23.29-.3.49-.07.2-.1.43-.1.7v.45h2.44v.84h-2.44v5.5h-1.09v-5.5l-.01-.01ZM755.262 549.37h2.41v.84h-2.41v3.45c0 .25.03.45.09.61.06.16.15.29.26.38.11.1.24.17.38.21.14.04.29.06.45.06.12 0 .24 0 .36-.02s.25-.03.37-.05c.12-.02.23-.04.33-.06.1-.02.19-.04.25-.06l.15.77c-.09.05-.2.1-.33.14-.13.04-.27.08-.42.1-.15.03-.31.05-.48.07-.17.02-.34.02-.51.02-.28 0-.54-.04-.79-.12-.25-.08-.46-.21-.64-.38s-.32-.4-.42-.67c-.1-.27-.16-.61-.16-1v-3.45h-1.66v-.84h1.66v-1.54h1.09v1.54h.02ZM761.271 549.96c.11-.11.22-.2.33-.28.19-.14.39-.24.62-.31.23-.07.46-.11.72-.11.33 0 .63.05.91.14.28.09.5.25.69.45.19.2.34.46.44.77.1.31.16.68.16 1.1v3.99h-1.08v-4c0-.25-.03-.47-.09-.66-.06-.19-.14-.35-.26-.47-.12-.14-.27-.24-.46-.31s-.39-.1-.63-.1c-.2 0-.38.03-.56.08-.18.05-.34.13-.49.23-.12.08-.23.17-.33.27s-.19.22-.27.34v4.61h-1.08v-9h1.08v3.6a2 2 0 0 1 .29-.35l.01.01ZM768.671 555.6c-.37-.15-.69-.37-.96-.64s-.47-.6-.62-.97c-.15-.37-.22-.78-.22-1.22v-.25c0-.51.08-.97.25-1.37.17-.4.38-.75.66-1.03.27-.28.58-.49.92-.64.34-.15.7-.22 1.06-.22.46 0 .86.08 1.2.24.34.16.63.38.85.65.23.28.4.61.51.99.11.38.17.79.17 1.23v.49h-4.53v.04c.03.31.09.58.18.81.09.23.23.44.4.62.17.19.38.34.62.45.24.11.51.16.8.16.39 0 .73-.08 1.03-.23.3-.15.55-.36.75-.62l.66.52c-.21.32-.53.6-.95.85-.42.25-.94.37-1.56.37-.45 0-.85-.08-1.23-.23h.01Zm.47-5.33c-.2.08-.37.2-.53.35-.16.16-.29.35-.4.57-.11.22-.18.48-.23.78h3.41v-.05c0-.2-.04-.41-.11-.63a1.79 1.79 0 0 0-.31-.58c-.13-.16-.3-.3-.5-.4-.2-.1-.44-.15-.72-.15-.22 0-.43.04-.62.12l.01-.01ZM782.623 552.23v3.48h-1.08v-8.53h2.5c.4 0 .77.06 1.12.17.35.11.66.26.93.47.26.21.47.48.62.79.15.31.23.69.23 1.12a2.286 2.286 0 0 1-.45 1.39c-.14.19-.31.35-.5.5-.19.15-.41.27-.64.37l1.81 3.64v.07h-1.15l-1.68-3.48h-1.71v.01Zm1.45-.89c.24 0 .47-.04.69-.11.22-.07.4-.18.57-.31.16-.14.29-.3.38-.5.09-.2.14-.42.14-.68 0-.27-.04-.51-.13-.72-.09-.21-.21-.38-.38-.52-.16-.14-.35-.24-.57-.31-.22-.07-.46-.11-.72-.11h-1.42v3.27h1.45l-.01-.01ZM790.273 555.6c-.37-.15-.69-.37-.96-.64s-.47-.6-.62-.97c-.15-.37-.22-.78-.22-1.22v-.25c0-.51.08-.97.25-1.37.17-.4.38-.75.66-1.03.27-.28.58-.49.92-.64.34-.15.7-.22 1.06-.22.46 0 .86.08 1.2.24.34.16.63.38.85.65.23.28.4.61.51.99.11.38.17.79.17 1.23v.49h-4.53v.04c.03.31.09.58.18.81.09.23.23.44.4.62.17.19.38.34.62.45.24.11.51.16.8.16.39 0 .73-.08 1.03-.23.3-.15.55-.36.75-.62l.66.52c-.21.32-.53.6-.95.85-.42.25-.94.37-1.56.37-.45 0-.85-.08-1.23-.23h.01Zm.47-5.33c-.2.08-.37.2-.53.35-.16.16-.29.35-.4.57-.11.22-.18.48-.23.78h3.41v-.05c0-.2-.04-.41-.11-.63a1.79 1.79 0 0 0-.31-.58c-.13-.16-.3-.3-.5-.4-.2-.1-.44-.15-.72-.15-.22 0-.43.04-.62.12l.01-.01ZM795.891 549.37h.99l.05.69c.09-.11.18-.21.28-.3.1-.09.21-.16.33-.23.16-.09.35-.17.55-.21.2-.04.42-.07.65-.07.41 0 .77.08 1.08.24.31.16.57.38.79.67.22.29.37.63.48 1.02.11.39.16.83.16 1.3v.12c0 .45-.05.88-.16 1.27s-.27.73-.48 1.02c-.21.29-.47.52-.78.68-.31.16-.67.25-1.06.25-.24 0-.47-.03-.68-.08a2.049 2.049 0 0 1-.86-.42c-.09-.08-.17-.15-.25-.24v3.05h-1.08v-8.78l-.01.02Zm4.17 2.24c-.07-.28-.17-.53-.31-.74a1.61 1.61 0 0 0-.54-.5c-.21-.12-.48-.19-.79-.19-.17 0-.32.02-.47.06-.15.04-.27.1-.38.17-.12.07-.24.17-.33.28-.09.11-.18.23-.26.36v3.05c.07.12.14.23.23.33s.18.19.29.26c.12.08.26.15.42.19.16.04.33.07.51.07.3 0 .56-.06.78-.19.22-.13.4-.3.54-.51.14-.21.25-.46.31-.74.06-.28.1-.58.1-.88v-.12c0-.31-.03-.6-.1-.88v-.02ZM807.213 554.84c-.21.31-.47.56-.79.73-.32.17-.68.26-1.1.26-.33 0-.63-.05-.9-.16s-.5-.26-.69-.48c-.19-.22-.34-.5-.44-.83-.1-.33-.16-.74-.16-1.22v-3.77h1.08v3.78c0 .34.03.63.08.86.05.23.14.41.25.54.11.14.24.23.4.29.16.06.34.08.55.08.24 0 .46-.03.65-.08s.36-.14.5-.24c.12-.08.22-.18.31-.3s.16-.24.22-.38v-4.55h1.09v6.34h-.98l-.06-.87h-.01ZM815.613 553.41c-.04.26-.1.5-.18.72-.11.29-.24.56-.41.79-.17.23-.37.42-.61.58-.17.11-.36.19-.57.25-.21.06-.43.09-.67.09-.27 0-.52-.03-.75-.1a2.023 2.023 0 0 1-.86-.5c-.08-.08-.15-.16-.22-.25l-.05.72h-1v-9h1.08v3.34c.09-.11.19-.22.3-.31.11-.09.23-.17.35-.24.16-.08.33-.14.52-.19.19-.05.39-.06.61-.06.27 0 .53.04.76.11.23.07.44.18.63.31.17.12.32.28.45.45.13.17.25.38.35.59.11.25.19.52.24.82.05.3.08.61.08.95v.12c0 .28-.02.54-.06.8l.01.01Zm-1.06-1.51c-.03-.19-.06-.37-.11-.54-.07-.21-.16-.4-.28-.57a1.23 1.23 0 0 0-.42-.4c-.11-.07-.24-.12-.38-.16-.14-.04-.3-.06-.47-.06-.19 0-.36.02-.52.07-.16.05-.29.12-.42.2-.12.09-.24.19-.33.31-.09.12-.18.25-.24.39v2.77c.07.14.15.27.25.39s.21.22.33.31a1.503 1.503 0 0 0 .94.28 1.487 1.487 0 0 0 .89-.27c.16-.11.29-.25.39-.42.1-.17.19-.36.25-.56.05-.16.09-.32.11-.5.02-.18.04-.36.04-.55v-.12c0-.2-.01-.39-.04-.58l.01.01ZM820.912 546.71v8.06h2.07v.94h-5.31v-.94h2.16v-7.12h-2.16v-.94h3.24ZM828.111 549.37v5.4h2.07v.94h-5.31v-.94h2.16v-4.46h-2.16v-.94h3.24Zm-1.18-1.93a.561.561 0 0 1 .34-.33c.08-.03.17-.04.27-.04s.19.01.27.04c.08.03.14.07.19.12.06.05.11.12.14.21.03.09.05.17.05.27 0 .18-.05.32-.16.44s-.27.18-.49.18c-.22 0-.38-.06-.49-.18a.613.613 0 0 1-.16-.44c0-.09.01-.18.04-.26v-.01ZM835.182 554.86c.19-.06.35-.15.5-.26.14-.11.26-.24.35-.39.09-.15.13-.31.14-.49h1.03c0 .28-.08.55-.22.81s-.33.48-.57.67c-.24.2-.51.35-.82.47-.31.12-.63.17-.97.17-.48 0-.9-.09-1.26-.26s-.66-.4-.9-.7a2.93 2.93 0 0 1-.54-1c-.12-.38-.18-.78-.18-1.2v-.25c0-.42.06-.82.18-1.2s.3-.72.54-1.01c.24-.29.54-.52.9-.69.36-.17.78-.26 1.26-.26a2.819 2.819 0 0 1 1.85.66c.23.21.4.45.53.73.13.28.19.58.19.9h-1.03c0-.19-.05-.37-.13-.54a1.454 1.454 0 0 0-.82-.75c-.19-.07-.39-.11-.61-.11-.34 0-.62.07-.85.2-.23.13-.41.31-.55.52-.14.22-.24.46-.3.73-.06.27-.09.54-.09.81v.25c0 .28.03.55.09.82.06.27.16.51.3.73.14.22.32.4.55.53.23.13.51.2.85.2.2 0 .39-.03.57-.09h.01ZM846.202 551.21c.13-.39.32-.73.57-1.02.25-.29.55-.52.9-.68.35-.16.76-.25 1.2-.25.44 0 .85.08 1.21.25.36.17.66.39.91.68.25.29.44.63.57 1.02.13.39.2.82.2 1.27v.13c0 .46-.07.88-.2 1.27s-.32.73-.57 1.02c-.25.29-.55.52-.91.68-.36.16-.76.25-1.2.25-.44 0-.85-.08-1.21-.25-.36-.17-.66-.39-.91-.68-.25-.29-.44-.63-.57-1.02-.13-.39-.2-.81-.2-1.27v-.13c0-.46.07-.88.2-1.27h.01Zm1 2.3c.07.28.19.53.34.75.15.21.34.38.56.51.22.13.49.19.79.19.3 0 .56-.06.78-.19.22-.13.41-.29.57-.51.15-.21.26-.46.33-.75s.11-.58.11-.89v-.13c0-.31-.04-.6-.11-.89-.07-.29-.19-.53-.34-.75-.15-.21-.34-.39-.57-.51-.23-.12-.49-.19-.79-.19-.3 0-.56.06-.79.19-.23.13-.41.3-.56.51-.15.21-.27.46-.34.75s-.11.58-.11.89v.13c0 .31.04.61.11.89h.02ZM855.133 550.21h-1.75v-.84h1.75v-.45c0-.41.06-.76.18-1.07.12-.31.29-.56.51-.77.21-.21.47-.36.78-.47.31-.11.64-.16 1.02-.16.16 0 .31 0 .46.03.15.03.3.04.45.07.1.02.2.04.29.06.09.02.2.05.3.07l-.13.9c-.16-.05-.35-.1-.56-.14-.21-.04-.44-.06-.68-.06-.24 0-.46.03-.65.09s-.35.15-.47.27c-.13.12-.23.29-.3.49-.07.2-.1.43-.1.7v.45h2.44v.84h-2.44v5.5h-1.09v-5.5l-.01-.01ZM869.141 553.5l-.69 2.21h-1.08l2.75-8.53h.91l2.71 8.53h-1.08l-.67-2.21h-2.85Zm2.56-.94-1.12-3.7-1.14 3.7h2.27-.01ZM875.642 549.97c.13-.22.3-.4.51-.52.21-.12.46-.19.76-.19.17 0 .32.02.45.06.13.04.25.09.35.16.07.05.14.12.2.2.06.08.11.17.16.26.05-.09.12-.17.19-.25.07-.08.15-.15.24-.21a1.56 1.56 0 0 1 .81-.22c.22 0 .42.03.59.1.17.07.32.16.45.28.13.14.23.32.3.55.07.23.11.49.11.79v4.73h-1.03v-4.75c0-.13-.02-.25-.05-.35a.734.734 0 0 0-.13-.25.594.594 0 0 0-.23-.14c-.09-.03-.2-.05-.32-.05-.13 0-.24.02-.33.05-.09.03-.17.08-.23.14a.8.8 0 0 0-.15.21c-.04.08-.06.17-.07.27v4.86h-1.03v-4.75c0-.13-.01-.25-.04-.35a.555.555 0 0 0-.36-.39.972.972 0 0 0-.31-.04c-.13 0-.24.01-.34.04-.1.03-.18.07-.24.13-.05.04-.09.09-.13.15-.04.06-.07.11-.09.18v5.04h-1.03v-6.34h.97l.03.6h-.01ZM883.89 555.6c-.37-.15-.69-.37-.96-.64s-.47-.6-.62-.97c-.15-.37-.22-.78-.22-1.22v-.25c0-.51.08-.97.25-1.37.17-.4.38-.75.66-1.03.27-.28.58-.49.92-.64.34-.15.7-.22 1.06-.22.46 0 .86.08 1.2.24.34.16.63.38.85.65.23.28.4.61.51.99.11.38.17.79.17 1.23v.49h-4.53v.04c.03.31.09.58.18.81.09.23.23.44.4.62.17.19.38.34.62.45.24.11.51.16.8.16.39 0 .73-.08 1.03-.23.3-.15.55-.36.75-.62l.66.52c-.21.32-.53.6-.95.85-.42.25-.94.37-1.56.37-.45 0-.85-.08-1.23-.23h.01Zm.47-5.33c-.2.08-.37.2-.53.35-.16.16-.29.35-.4.57-.11.22-.18.48-.23.78h3.41v-.05c0-.2-.04-.41-.11-.63a1.79 1.79 0 0 0-.31-.58c-.13-.16-.3-.3-.5-.4-.2-.1-.44-.15-.72-.15-.22 0-.43.04-.62.12l.01-.01ZM894.292 549.29c.22.03.38.06.49.11l-.15 1.06a4.69 4.69 0 0 0-.6-.1c-.19-.02-.39-.03-.59-.03-.27 0-.51.03-.72.1-.21.07-.4.16-.56.28-.14.11-.27.24-.38.4-.11.16-.2.33-.27.53v4.07h-1.09v-6.34h1.03l.05.85v.16c.26-.35.57-.62.93-.82.36-.2.77-.3 1.23-.3.2 0 .41.01.62.04l.01-.01ZM900.131 549.37v5.4h2.07v.94h-5.31v-.94h2.16v-4.46h-2.16v-.94h3.24Zm-1.18-1.93a.561.561 0 0 1 .34-.33c.08-.03.17-.04.27-.04s.19.01.27.04c.08.03.14.07.19.12.06.05.11.12.14.21.03.09.05.17.05.27 0 .18-.05.32-.16.44s-.27.18-.49.18c-.22 0-.38-.06-.49-.18a.613.613 0 0 1-.16-.44c0-.09.01-.18.04-.26v-.01ZM907.19 554.86c.19-.06.35-.15.5-.26.14-.11.26-.24.35-.39.09-.15.13-.31.14-.49h1.03c0 .28-.08.55-.22.81s-.33.48-.57.67c-.24.2-.51.35-.82.47-.31.12-.63.17-.97.17-.48 0-.9-.09-1.26-.26s-.66-.4-.9-.7a2.93 2.93 0 0 1-.54-1c-.12-.38-.18-.78-.18-1.2v-.25c0-.42.06-.82.18-1.2s.3-.72.54-1.01c.24-.29.54-.52.9-.69.36-.17.78-.26 1.26-.26a2.819 2.819 0 0 1 1.85.66c.23.21.4.45.53.73.13.28.19.58.19.9h-1.03c0-.19-.05-.37-.13-.54a1.454 1.454 0 0 0-.82-.75c-.19-.07-.39-.11-.61-.11-.34 0-.62.07-.85.2-.23.13-.41.31-.55.52-.14.22-.24.46-.3.73-.06.27-.09.54-.09.81v.25c0 .28.03.55.09.82.06.27.16.51.3.73.14.22.32.4.55.53.23.13.51.2.85.2.2 0 .39-.03.57-.09h.01ZM915.18 555.4c-.03-.12-.04-.25-.06-.38-.11.11-.23.21-.37.31-.14.1-.28.18-.44.26-.16.07-.34.13-.52.18-.18.05-.38.06-.59.06-.34 0-.64-.05-.91-.15-.27-.1-.5-.23-.69-.4-.19-.16-.34-.36-.44-.59-.1-.23-.16-.48-.16-.74 0-.35.07-.65.21-.91.14-.26.33-.48.59-.66.25-.17.56-.3.92-.39.36-.09.76-.13 1.2-.13h1.18v-.5c0-.19-.04-.36-.11-.52-.07-.16-.17-.28-.3-.39-.13-.11-.29-.19-.47-.25s-.39-.09-.62-.09c-.21 0-.41.03-.58.08-.17.05-.31.13-.43.22s-.21.2-.27.32c-.06.12-.1.25-.1.38h-1.09c0-.23.06-.46.18-.68.12-.22.28-.42.5-.6.21-.18.48-.32.79-.43.31-.11.66-.16 1.06-.16.36 0 .69.04 1 .13.31.09.58.22.8.4.22.18.4.4.53.67s.19.58.19.93v2.95c0 .21.02.43.06.67.04.24.09.44.16.62v.09h-1.13c-.04-.08-.08-.18-.1-.31l.01.01Zm-1.22-.6c.18-.05.35-.13.5-.22a1.719 1.719 0 0 0 .65-.67v-1.28h-1.01c-.38 0-.7.03-.98.1s-.5.16-.67.3c-.12.09-.21.21-.27.33-.06.12-.09.28-.09.44 0 .16.03.3.08.43s.13.25.24.34c.11.1.24.17.4.23.16.06.35.08.56.08.21 0 .41-.03.59-.08Z" fill="#000"/><path d="M914.371 442.79V260.04h19.37v192.43l-19.37-9.68ZM933.741 452.47l-19.37-9.62 19.37 9.62ZM933.741 442.85l-19.37-9.62 19.37 9.62ZM933.741 433.23l-19.37-9.62 19.37 9.62ZM933.741 423.61l-19.37-9.62 19.37 9.62ZM933.741 413.99l-19.37-9.62 19.37 9.62ZM933.741 404.37l-19.37-9.62 19.37 9.62ZM933.741 394.75l-19.37-9.62 19.37 9.62ZM933.741 385.12l-19.37-9.62 19.37 9.62ZM933.741 375.5l-19.37-9.62 19.37 9.62ZM933.741 365.88l-19.37-9.62 19.37 9.62ZM933.741 356.26l-19.37-9.62 19.37 9.62ZM933.741 346.64l-19.37-9.62 19.37 9.62ZM933.741 337.02l-19.37-9.62 19.37 9.62ZM933.741 327.39l-19.37-9.62 19.37 9.62ZM933.741 317.77l-19.37-9.62 19.37 9.62ZM933.741 308.15l-19.37-9.62 19.37 9.62ZM933.741 298.53l-19.37-9.62 19.37 9.62ZM933.741 288.91l-19.37-9.62 19.37 9.62ZM933.741 279.29l-19.37-9.62 19.37 9.62ZM933.741 269.66l-19.37-9.62 19.37 9.62Z" stroke="#000" stroke-width=".5" stroke-miterlimit="10"/><path d="M394.46 167.1c.19 0 .35-.16.35-.35v-3.49c0-.19-.16-.35-.35-.35h-4.23v-2.76c0-1.35-1.09-2.44-2.44-2.44h-2.76v-4.23c0-.19-.16-.35-.35-.35h-3.49c-.19 0-.35.16-.35.35v4.23h-1.4v-4.23c0-.19-.16-.35-.35-.35h-3.49c-.19 0-.35.16-.35.35v4.23h-1.4v-4.23c0-.19-.16-.35-.35-.35h-3.49c-.19 0-.35.16-.35.35v4.23h-1.4v-4.23c0-.19-.16-.35-.35-.35h-3.49c-.19 0-.35.16-.35.35v4.23h-1.4v-4.23c0-.19-.16-.35-.35-.35h-3.49c-.19 0-.35.16-.35.35v4.23h-1.4v-4.23c0-.19-.16-.35-.35-.35h-3.49c-.19 0-.35.16-.35.35v4.23h-1.4v-4.23c0-.19-.16-.35-.35-.35h-3.49c-.19 0-.35.16-.35.35v4.23h-1.4v-4.23c0-.19-.16-.35-.35-.35h-3.49c-.19 0-.35.16-.35.35v4.23h-2.76c-1.35 0-2.44 1.09-2.44 2.44v2.76h-4.23c-.19 0-.35.16-.35.35v3.49c0 .19.16.35.35.35h4.23v1.4h-4.23c-.19 0-.35.16-.35.35v3.49c0 .19.16.35.35.35h4.23v1.4h-4.23c-.19 0-.35.16-.35.35v3.49c0 .19.16.35.35.35h4.23v1.4h-4.23c-.19 0-.35.16-.35.35v3.49c0 .19.16.35.35.35h4.23v1.4h-4.23c-.19 0-.35.16-.35.35v3.49c0 .19.16.35.35.35h4.23v1.4h-4.23c-.19 0-.35.16-.35.35v3.49c0 .19.16.35.35.35h4.23v1.4h-4.23c-.19 0-.35.16-.35.35v3.49c0 .19.16.35.35.35h4.23v1.4h-4.23c-.19 0-.35.16-.35.35v3.49c0 .19.16.35.35.35h4.23v2.76c0 1.35 1.09 2.44 2.44 2.44h2.76v4.23c0 .19.16.35.35.35h3.49c.19 0 .35-.16.35-.35v-4.23h1.4v4.23c0 .19.16.35.35.35h3.49c.19 0 .35-.16.35-.35v-4.23h1.4v4.23c0 .19.16.35.35.35h3.49c.19 0 .35-.16.35-.35v-4.23h1.4v4.23c0 .19.16.35.35.35h3.49c.19 0 .35-.16.35-.35v-4.23h1.4v4.23c0 .19.16.35.35.35h3.49c.19 0 .35-.16.35-.35v-4.23h1.4v4.23c0 .19.16.35.35.35h3.49c.19 0 .35-.16.35-.35v-4.23h1.4v4.23c0 .19.16.35.35.35h3.49c.19 0 .35-.16.35-.35v-4.23h1.4v4.23c0 .19.16.35.35.35h3.49c.19 0 .35-.16.35-.35v-4.23h2.76c1.35 0 2.44-1.09 2.44-2.44v-2.76h4.23c.19 0 .35-.16.35-.35v-3.49c0-.19-.16-.35-.35-.35h-4.23v-1.4h4.23c.19 0 .35-.16.35-.35v-3.49c0-.19-.16-.35-.35-.35h-4.23v-1.4h4.23c.19 0 .35-.16.35-.35v-3.49c0-.19-.16-.35-.35-.35h-4.23v-1.4h4.23c.19 0 .35-.16.35-.35v-3.49c0-.19-.16-.35-.35-.35h-4.23v-1.4h4.23c.19 0 .35-.16.35-.35v-3.49c0-.19-.16-.35-.35-.35h-4.23v-1.4h4.23c.19 0 .35-.16.35-.35v-3.49c0-.19-.16-.35-.35-.35h-4.23v-1.4h4.23c.19 0 .35-.16.35-.35v-3.49c0-.19-.16-.35-.35-.35h-4.23v-1.4h4.23Z" fill="#D8D8D8" stroke="#000" stroke-width=".5" stroke-miterlimit="10"/><path d="M387.398 207.74v-46.31a.87.87 0 0 0-.87-.87h-46.31a.87.87 0 0 0-.87.87v46.31c0 .481.39.87.87.87h46.31a.87.87 0 0 0 .87-.87Z" fill="#d9d9d9" class="Q2" stroke="#000" stroke-width=".5" stroke-miterlimit="10"/><path d="M362.27 185.75c-.1.53-.24 1.04-.43 1.52-.2.48-.45.93-.74 1.34-.29.41-.65.76-1.05 1.04l2.34 2.22-.77.73-2.58-2.43a4.682 4.682 0 0 1-1.4.22c-.56 0-1.06-.09-1.51-.26a4.01 4.01 0 0 1-1.2-.71c-.36-.3-.67-.65-.93-1.05s-.47-.83-.64-1.3c-.18-.46-.3-.93-.39-1.43-.09-.5-.12-.98-.13-1.47v-1.63c0-.48.05-.97.13-1.47s.21-.98.38-1.43c.17-.46.38-.9.64-1.3s.56-.76.92-1.06c.35-.29.75-.53 1.21-.7.45-.17.96-.26 1.52-.26s1.06.09 1.51.26c.45.17.86.41 1.21.7.35.3.66.65.92 1.06.26.41.47.84.64 1.29.17.46.3.94.38 1.44.08.5.13.99.14 1.47v1.63c0 .51-.06 1.04-.16 1.56l-.01.02Zm-1.06-4.39c-.06-.4-.14-.8-.25-1.19-.13-.38-.28-.73-.48-1.08a4.12 4.12 0 0 0-.69-.91c-.27-.25-.58-.45-.94-.6-.36-.15-.77-.23-1.23-.23-.46 0-.86.08-1.22.23-.36.15-.67.35-.94.61-.27.26-.5.56-.69.9-.19.34-.35.7-.47 1.09a8.056 8.056 0 0 0-.36 2.36v1.65a8.185 8.185 0 0 0 .36 2.36c.12.38.27.75.47 1.09.19.34.42.65.7.9.27.26.58.46.94.61.36.15.76.23 1.22.23.46 0 .87-.08 1.23-.23.36-.15.67-.35.95-.61.27-.26.5-.56.69-.9.19-.34.34-.71.46-1.1.12-.38.21-.78.26-1.18.05-.4.08-.8.09-1.18v-1.65c0-.38-.04-.78-.09-1.18l-.01.01ZM364.599 190.21v-.88l4.48-5.08c.33-.38.64-.74.92-1.08.28-.34.52-.69.72-1.02.2-.33.36-.67.47-1 .11-.33.17-.68.17-1.04 0-.41-.07-.79-.21-1.14a2.59 2.59 0 0 0-.58-.89c-.26-.24-.56-.43-.91-.57-.35-.14-.74-.2-1.17-.2-.48 0-.91.08-1.28.24-.37.16-.69.38-.94.65-.26.29-.47.62-.61 1.01s-.21.81-.22 1.26h-1.13c0-.56.11-1.1.31-1.6s.48-.94.85-1.32c.36-.38.79-.67 1.3-.89.51-.22 1.09-.33 1.73-.33.6 0 1.15.09 1.65.27.5.18.92.43 1.27.76s.62.73.81 1.18c.19.46.29.96.29 1.52 0 .45-.08.89-.24 1.32-.16.43-.37.84-.62 1.25-.26.41-.54.8-.86 1.19-.32.39-.64.76-.97 1.11l-3.82 4.31h7.19v.97h-8.6Z" fill="#000" class="Q2 text"/><path d="M448.382 285.44h-73.06c-13.564 0-24.56 10.994-24.56 24.555s10.996 24.555 24.56 24.555h73.06c13.564 0 24.56-10.994 24.56-24.555s-10.996-24.555-24.56-24.555Z" fill="#D8D8D8" stroke="#000" stroke-width=".5" stroke-miterlimit="10"/><path d="M375.32 326.05c-8.85 0-16.05-7.2-16.05-16.05 0-8.85 7.2-16.05 16.05-16.05h73.07c8.85 0 16.05 7.2 16.05 16.05 0 8.85-7.2 16.05-16.05 16.05h-73.07Z" fill="#d9d9d9" class="Q3" stroke="#000" stroke-width=".5" stroke-miterlimit="10"/><path d="M410.75 311.16c-.1.53-.24 1.04-.43 1.52-.2.48-.45.93-.74 1.34-.29.41-.65.76-1.05 1.04l2.34 2.22-.77.73-2.58-2.43a4.682 4.682 0 0 1-1.4.22c-.56 0-1.06-.09-1.51-.26a4.01 4.01 0 0 1-1.2-.71c-.36-.3-.67-.65-.93-1.05s-.47-.83-.64-1.3c-.18-.46-.3-.93-.39-1.43-.09-.5-.12-.98-.13-1.47v-1.63c0-.48.05-.97.13-1.47s.21-.98.38-1.43c.17-.46.38-.9.64-1.3s.56-.76.92-1.06c.35-.29.75-.53 1.21-.7.45-.17.96-.26 1.52-.26s1.06.09 1.51.26c.45.17.86.41 1.21.7.35.3.66.65.92 1.06.26.41.47.84.64 1.29.17.46.3.94.38 1.44.08.5.13.99.14 1.47v1.63c0 .51-.06 1.04-.16 1.56l-.01.02Zm-1.06-4.39c-.06-.4-.14-.8-.25-1.19-.13-.38-.28-.73-.48-1.08a4.12 4.12 0 0 0-.69-.91c-.27-.25-.58-.45-.94-.6-.36-.15-.77-.23-1.23-.23-.46 0-.86.08-1.22.23-.36.15-.67.35-.94.61-.27.26-.5.56-.69.9-.19.34-.35.7-.47 1.09a8.056 8.056 0 0 0-.36 2.36v1.65a8.185 8.185 0 0 0 .36 2.36c.12.38.27.75.47 1.09.19.34.42.65.7.9.27.26.58.46.94.61.36.15.76.23 1.22.23.46 0 .87-.08 1.23-.23.36-.15.67-.35.95-.61.27-.26.5-.56.69-.9.19-.34.34-.71.46-1.1.12-.38.21-.78.26-1.18.05-.4.08-.8.09-1.18v-1.65c0-.38-.04-.78-.09-1.18l-.01.01ZM416.78 308.16c.44 0 .85-.06 1.24-.18s.73-.3 1.02-.52c.29-.22.52-.5.69-.83.17-.33.25-.7.25-1.13 0-.43-.07-.84-.21-1.19-.14-.35-.33-.64-.58-.88-.25-.23-.55-.41-.91-.53-.36-.12-.75-.18-1.18-.18-.43 0-.82.07-1.18.2s-.68.32-.94.56c-.27.25-.48.55-.63.89-.15.34-.23.73-.24 1.16h-1.13c0-.55.11-1.05.32-1.51.21-.46.5-.86.86-1.2.37-.34.8-.6 1.3-.79.5-.19 1.04-.28 1.64-.28.6 0 1.12.08 1.61.25.49.17.91.42 1.27.74.36.33.63.72.83 1.19.2.47.3 1 .3 1.6a2.926 2.926 0 0 1-.65 1.84c-.21.27-.46.51-.75.72-.29.21-.62.38-.99.51.43.12.8.28 1.13.49.33.21.61.45.83.73.22.28.39.6.5.94.12.35.17.72.17 1.12 0 .61-.11 1.16-.32 1.65-.22.48-.51.89-.89 1.22-.38.34-.83.6-1.34.78-.51.18-1.07.27-1.65.27-.58 0-1.16-.09-1.69-.27a4.06 4.06 0 0 1-1.38-.78c-.4-.34-.71-.75-.94-1.23-.23-.48-.36-1.02-.37-1.63h1.13c0 .44.09.85.26 1.21s.4.67.7.92c.29.26.63.45 1.02.59.39.14.82.21 1.27.21.45 0 .86-.06 1.24-.18s.7-.31.98-.56c.27-.24.48-.55.63-.91.15-.36.23-.78.23-1.25 0-.5-.09-.93-.28-1.28-.19-.35-.43-.64-.74-.87-.32-.23-.69-.39-1.11-.49a5.7 5.7 0 0 0-1.33-.16h-1.15v-.97h1.15l.01.01Z" fill="#000" class="Q3 text"/><path d="M697.399 241.45h-66.45v66.45h66.45v-66.45Z" fill="#fff" stroke="#000" stroke-width=".5" stroke-miterlimit="10"/><path d="M659.23 277.544v-1.014a5.627 5.627 0 0 0-.087-.914 4.918 4.918 0 0 0-.235-.902 3.948 3.948 0 0 0-.404-.803 2.931 2.931 0 0 0-.568-.662 2.642 2.642 0 0 0-1.7-.598 2.64 2.64 0 0 0-.949.164c-.281.106-.531.25-.75.434a2.983 2.983 0 0 0-.574.662c-.16.25-.293.52-.399.809a4.85 4.85 0 0 0-.234.896 6.098 6.098 0 0 0-.082.914v1.014c.004.301.031.605.082.914.051.309.131.605.24.891.106.289.239.558.399.808.164.25.357.469.58.656.219.188.469.336.75.446.281.105.596.158.943.158.16 0 .313-.014.457-.041.145-.023.283-.057.416-.1l1.612 1.512.48-.457-1.459-1.383c.254-.176.473-.39.656-.644.184-.258.338-.537.463-.838.117-.301.205-.615.264-.944.062-.332.096-.658.099-.978Zm-.697-1.025v1.025a6.164 6.164 0 0 1-.058.738c-.032.25-.084.494-.159.733a3.68 3.68 0 0 1-.287.685 2.31 2.31 0 0 1-.427.557c-.172.16-.37.287-.592.381-.223.093-.479.14-.768.14-.285 0-.539-.047-.762-.14a1.92 1.92 0 0 1-.585-.381 2.312 2.312 0 0 1-.44-.563 3.74 3.74 0 0 1-.287-.679 5.379 5.379 0 0 1-.17-.739 5.369 5.369 0 0 1-.053-.732v-1.025c0-.239.018-.483.053-.733.039-.25.096-.496.17-.738.074-.238.17-.463.287-.674.121-.215.266-.402.434-.562.168-.161.363-.288.586-.381.222-.094.476-.141.761-.141a1.946 1.946 0 0 1 1.354.516 2.4 2.4 0 0 1 .428.568c.121.211.22.434.298.668.071.242.123.49.159.744.035.25.054.494.058.733Zm6.504 2.027v-5.777h-.767l-3.95 5.97v.405h4.014v2.156h.703v-2.156h1.33v-.598h-1.33Zm-3.867 0 2.83-4.301.334-.568v4.869h-3.164Z" fill="#000"/><path d="M664.18 298.69c13.266 0 24.02-10.754 24.02-24.02s-10.754-24.02-24.02-24.02-24.02 10.754-24.02 24.02 10.754 24.02 24.02 24.02Z" fill="#fff" stroke="#000" stroke-width=".5" stroke-miterlimit="10" class="Q4"/><path d="M663.071 275.84c-.1.53-.24 1.04-.43 1.52-.2.48-.45.93-.74 1.34-.29.41-.65.76-1.05 1.04l2.34 2.22-.77.73-2.58-2.43a4.682 4.682 0 0 1-1.4.22c-.56 0-1.06-.09-1.51-.26a4.01 4.01 0 0 1-1.2-.71c-.36-.3-.67-.65-.93-1.05s-.47-.83-.64-1.3c-.18-.46-.3-.93-.39-1.43-.09-.5-.12-.98-.13-1.47v-1.63c0-.48.05-.97.13-1.47s.21-.98.38-1.43c.17-.46.38-.9.64-1.3s.56-.76.92-1.06c.35-.29.75-.53 1.21-.7.45-.17.96-.26 1.52-.26s1.06.09 1.51.26c.45.17.86.41 1.21.7.35.3.66.65.92 1.06.26.41.47.84.64 1.29.17.46.3.94.38 1.44.08.5.13.99.14 1.47v1.63c0 .51-.06 1.04-.16 1.56l-.01.02Zm-1.06-4.39c-.06-.4-.14-.8-.25-1.19-.13-.38-.28-.73-.48-1.08a4.12 4.12 0 0 0-.69-.91c-.27-.25-.58-.45-.94-.6-.36-.15-.77-.23-1.23-.23-.46 0-.86.08-1.22.23-.36.15-.67.35-.94.61-.27.26-.5.56-.69.9-.19.34-.35.7-.47 1.09a8.056 8.056 0 0 0-.36 2.36v1.65a8.185 8.185 0 0 0 .36 2.36c.12.38.27.75.47 1.09.19.34.42.65.7.9.27.26.58.46.94.61.36.15.76.23 1.22.23.46 0 .87-.08 1.23-.23.36-.15.67-.35.95-.61.27-.26.5-.56.69-.9.19-.34.34-.71.46-1.1.12-.38.21-.78.26-1.18.05-.4.08-.8.09-1.18v-1.65c0-.38-.04-.78-.09-1.18l-.01.01ZM674.669 275.88v.96h-2.13v3.46h-1.13v-3.46h-6.44v-.65l6.34-9.58h1.23v9.27h2.13Zm-3.26 0v-7.81l-.54.91-4.54 6.9h5.08Z" fill="#000" class="Q4 text"/><path d="m387.041 399.47 6.98 8.25v39.96h-37.47v-48.21h30.49Z" stroke="#000" stroke-width=".5" stroke-miterlimit="10"/><path d="M375.75 437.53v-62.31a2.59 2.59 0 0 0-2.59-2.59H255.13a2.59 2.59 0 0 0-2.59 2.59v62.31a2.59 2.59 0 0 0 2.59 2.59h118.03a2.59 2.59 0 0 0 2.59-2.59Z" fill="#fff" stroke="#000" stroke-width=".5" stroke-miterlimit="10"/><path d="M281.539 428.18v-43.63a6.26 6.26 0 0 0-6.26-6.26h-9.73a6.26 6.26 0 0 0-6.26 6.26v43.63a6.26 6.26 0 0 0 6.26 6.26h9.73a6.26 6.26 0 0 0 6.26-6.26Z" fill="#fff" stroke="#000" stroke-width=".5" stroke-miterlimit="10"/><path d="M270.418 403.33a7.75 7.75 0 1 0 0-15.5 7.75 7.75 0 0 0 0 15.5ZM270.418 424.9a7.75 7.75 0 1 0 0-15.5 7.75 7.75 0 0 0 0 15.5ZM310.688 428.18v-43.63a6.26 6.26 0 0 0-6.261-6.26h-9.73a6.26 6.26 0 0 0-6.259 6.26v43.63a6.26 6.26 0 0 0 6.259 6.26h9.73a6.26 6.26 0 0 0 6.261-6.26Z" fill="#fff" stroke="#000" stroke-width=".5" stroke-miterlimit="10"/><path d="M299.57 403.33a7.75 7.75 0 0 0 7.75-7.75 7.75 7.75 0 1 0-7.75 7.75ZM299.57 424.9a7.75 7.75 0 0 0 7.75-7.75 7.75 7.75 0 1 0-7.75 7.75ZM339.84 428.18v-43.63a6.26 6.26 0 0 0-6.26-6.26h-9.73a6.26 6.26 0 0 0-6.26 6.26v43.63a6.26 6.26 0 0 0 6.26 6.26h9.73a6.26 6.26 0 0 0 6.26-6.26Z" fill="#fff" stroke="#000" stroke-width=".5" stroke-miterlimit="10"/><path d="M328.711 403.33a7.75 7.75 0 1 0 0-15.5 7.75 7.75 0 0 0 0 15.5ZM328.711 424.9a7.75 7.75 0 1 0 0-15.5 7.75 7.75 0 0 0 0 15.5ZM368.988 428.18v-43.63a6.26 6.26 0 0 0-6.26-6.26h-9.73a6.26 6.26 0 0 0-6.26 6.26v43.63a6.26 6.26 0 0 0 6.26 6.26h9.73a6.26 6.26 0 0 0 6.26-6.26Z" fill="#fff" stroke="#000" stroke-width=".5" stroke-miterlimit="10"/><path d="M357.859 403.33a7.75 7.75 0 0 0 7.75-7.75 7.75 7.75 0 1 0-7.75 7.75ZM357.859 424.9a7.75 7.75 0 0 0 7.75-7.75 7.75 7.75 0 1 0-7.75 7.75Z" fill="#fff" stroke="#000" stroke-width=".5" stroke-miterlimit="10"/><path d="M793.2,467v-9.3H792l-6.3,9.6v0.7h6.4v3.5h1.1V468h2.1v-1H793.2z M792.1,467H787l4.5-6.9l0.5-0.9V467z" fill="#000" ></path><path d="M691.801 466.86c-.1.53-.24 1.04-.43 1.52-.2.48-.45.93-.74 1.34-.29.41-.65.76-1.05 1.04l2.34 2.22-.77.73-2.58-2.42a4.682 4.682 0 0 1-1.4.22c-.56 0-1.06-.09-1.51-.26a4.01 4.01 0 0 1-1.2-.71c-.36-.3-.67-.65-.93-1.05s-.47-.83-.64-1.3c-.18-.46-.3-.93-.39-1.43-.09-.5-.12-.98-.13-1.47v-1.63c0-.48.05-.97.13-1.47s.21-.98.38-1.43c.17-.46.38-.9.64-1.3s.56-.75.92-1.06c.35-.29.75-.53 1.21-.7.45-.17.96-.26 1.52-.26s1.06.09 1.51.26c.45.17.86.41 1.21.7.35.3.66.65.92 1.06.26.41.47.84.64 1.29.17.46.3.94.38 1.44.08.5.13.99.14 1.47v1.63c0 .51-.06 1.04-.16 1.57h-.01Zm-1.06-4.39c-.06-.4-.14-.8-.25-1.19-.13-.38-.28-.73-.48-1.08a4.12 4.12 0 0 0-.69-.91c-.27-.25-.58-.45-.94-.6-.36-.15-.77-.23-1.23-.23-.46 0-.86.08-1.22.23-.36.15-.67.35-.94.61-.27.26-.5.56-.69.9-.19.34-.35.7-.47 1.09a8.056 8.056 0 0 0-.36 2.36v1.64a8.185 8.185 0 0 0 .36 2.36c.12.38.27.75.47 1.09.19.34.42.65.7.9.27.26.58.46.94.61.36.15.76.23 1.22.23.46 0 .87-.08 1.23-.23.36-.15.67-.35.95-.61.27-.26.5-.56.69-.9.19-.34.34-.71.46-1.1.12-.38.21-.78.26-1.18.05-.4.08-.8.09-1.18v-1.64c0-.38-.04-.78-.09-1.18l-.01.01ZM698.761 471.32v-12.25l-3.8 1.62v-1.08l4.77-1.97h.16v13.69h-1.13v-.01ZM707.082 472.5l5.72-14.86h1.05l-5.71 14.86h-1.06ZM726.461 466.86c-.1.53-.24 1.04-.43 1.52-.2.48-.45.93-.74 1.34-.29.41-.65.76-1.05 1.04l2.34 2.22-.77.73-2.58-2.42a4.682 4.682 0 0 1-1.4.22c-.56 0-1.06-.09-1.51-.26a4.01 4.01 0 0 1-1.2-.71c-.36-.3-.67-.65-.93-1.05s-.47-.83-.64-1.3c-.18-.46-.3-.93-.39-1.43-.09-.5-.12-.98-.13-1.47v-1.63c0-.48.05-.97.13-1.47s.21-.98.38-1.43c.17-.46.38-.9.64-1.3s.56-.75.92-1.06c.35-.29.75-.53 1.21-.7.45-.17.96-.26 1.52-.26s1.06.09 1.51.26c.45.17.86.41 1.21.7.35.3.66.65.92 1.06.26.41.47.84.64 1.29.17.46.3.94.38 1.44.08.5.13.99.14 1.47v1.63c0 .51-.06 1.04-.16 1.57h-.01Zm-1.06-4.39c-.06-.4-.14-.8-.25-1.19-.13-.38-.28-.73-.48-1.08a4.12 4.12 0 0 0-.69-.91c-.27-.25-.58-.45-.94-.6-.36-.15-.77-.23-1.23-.23-.46 0-.86.08-1.22.23-.36.15-.67.35-.94.61-.27.26-.5.56-.69.9-.19.34-.35.7-.47 1.09a8.056 8.056 0 0 0-.36 2.36v1.64a8.185 8.185 0 0 0 .36 2.36c.12.38.27.75.47 1.09.19.34.42.65.7.9.27.26.58.46.94.61.36.15.76.23 1.22.23.46 0 .87-.08 1.23-.23.36-.15.67-.35.95-.61.27-.26.5-.56.69-.9.19-.34.34-.71.46-1.1.12-.38.21-.78.26-1.18.05-.4.08-.8.09-1.18v-1.64c0-.38-.04-.78-.09-1.18l-.01.01ZM728.802 471.32v-.88l4.48-5.08c.33-.38.64-.74.92-1.08.28-.34.52-.69.72-1.03.2-.33.36-.67.47-1 .11-.33.17-.68.17-1.04 0-.41-.07-.79-.21-1.14a2.59 2.59 0 0 0-.58-.89c-.26-.24-.56-.43-.91-.57-.35-.14-.74-.2-1.17-.2-.48 0-.91.08-1.28.24-.37.16-.69.38-.94.65-.26.29-.47.62-.61 1.01s-.21.81-.22 1.26h-1.13c0-.56.11-1.1.31-1.6s.48-.94.85-1.32c.36-.38.79-.67 1.3-.89.51-.22 1.09-.33 1.73-.33.6 0 1.15.09 1.65.27.5.18.92.43 1.27.76s.62.73.81 1.18c.19.46.29.96.29 1.52 0 .45-.08.89-.24 1.32-.16.43-.37.84-.62 1.25-.26.41-.54.8-.86 1.19-.32.38-.64.76-.97 1.11l-3.82 4.31h7.19v.97h-8.57l-.03.01ZM751.899 471.32v-.88l4.48-5.08c.33-.38.64-.74.92-1.08.28-.34.52-.69.72-1.03.2-.33.36-.67.47-1 .11-.33.17-.68.17-1.04 0-.41-.07-.79-.21-1.14a2.59 2.59 0 0 0-.58-.89c-.26-.24-.56-.43-.91-.57-.35-.14-.74-.2-1.17-.2-.48 0-.91.08-1.28.24-.37.16-.69.38-.94.65-.26.29-.47.62-.61 1.01s-.21.81-.22 1.26h-1.13c0-.56.11-1.1.31-1.6s.48-.94.85-1.32c.36-.38.79-.67 1.3-.89.51-.22 1.09-.33 1.73-.33.6 0 1.15.09 1.65.27.5.18.92.43 1.27.76s.62.73.81 1.18c.19.46.29.96.29 1.52 0 .45-.08.89-.24 1.32-.16.43-.37.84-.62 1.25-.26.41-.54.8-.86 1.19-.32.38-.64.76-.97 1.11l-3.82 4.31h7.19v.97h-8.57l-.03.01ZM772.083 468.08a5.44 5.44 0 0 1-.78 1.78c-.34.51-.79.91-1.33 1.21-.54.3-1.18.45-1.93.45-.61 0-1.15-.1-1.64-.3a3.4 3.4 0 0 1-1.24-.87c-.51-.53-.88-1.18-1.1-1.95-.23-.77-.34-1.6-.34-2.49v-2.86c0-.77.09-1.5.26-2.19s.44-1.29.8-1.8c.35-.51.8-.91 1.33-1.19.53-.28 1.18-.43 1.91-.43.61 0 1.16.1 1.65.31s.9.5 1.24.86c.49.51.85 1.16 1.08 1.94.23.79.35 1.62.35 2.5v2.86c0 .77-.09 1.49-.26 2.17Zm-1.05-6.83c-.08-.43-.2-.81-.36-1.16a3.04 3.04 0 0 0-.61-.9c-.24-.25-.54-.44-.87-.58-.33-.14-.73-.2-1.17-.2-.56 0-1.04.11-1.41.32-.38.21-.7.51-.97.89s-.47.86-.6 1.44a8.18 8.18 0 0 0-.19 1.79v2.4c0 .24 0 .49.02.73s.05.49.09.74l6.07-5.48v.01Zm.18 2.62c0-.2-.02-.45-.03-.73-.01-.29-.03-.55-.07-.79l-6.06 5.46c.09.42.21.8.38 1.14.17.34.37.63.63.87.24.23.52.41.86.54.33.13.71.19 1.13.19.55 0 1.02-.11 1.41-.34.39-.23.71-.53.94-.9.29-.41.49-.89.62-1.45.13-.56.19-1.15.19-1.78v-2.22.01ZM775.013 471.32v-.88l4.48-5.08c.33-.38.64-.74.92-1.08.28-.34.52-.69.72-1.03.2-.33.36-.67.47-1 .11-.33.17-.68.17-1.04 0-.41-.07-.79-.21-1.14a2.59 2.59 0 0 0-.58-.89c-.26-.24-.56-.43-.91-.57-.35-.14-.74-.2-1.17-.2-.48 0-.91.08-1.28.24-.37.16-.69.38-.94.65-.26.29-.47.62-.61 1.01s-.21.81-.22 1.26h-1.13c0-.56.11-1.1.31-1.6s.48-.94.85-1.32c.36-.38.79-.67 1.3-.89.51-.22 1.09-.33 1.73-.33.6 0 1.15.09 1.65.27.5.18.92.43 1.27.76s.62.73.81 1.18c.19.46.29.96.29 1.52 0 .45-.08.89-.24 1.32-.16.43-.37.84-.62 1.25-.26.41-.54.8-.86 1.19-.32.38-.64.76-.97 1.11l-3.82 4.31h7.19v.97h-8.57l-.03.01ZM790.252 463.86c.44 0 .85-.06 1.24-.18" fill="#fff" class="Q1Q2 text"/><path d="M291.849 77.19v4.46h-1.38V70.73h3.2c.51 0 .99.08 1.44.22.45.14.85.34 1.19.61.33.27.6.61.79 1.02.19.41.29.89.29 1.44 0 .35-.05.68-.15.97-.1.3-.24.56-.42.8s-.4.45-.65.64-.52.34-.83.47l2.32 4.67v.09h-1.47l-2.15-4.46h-2.18v-.01Zm1.86-1.14c.31 0 .6-.05.88-.15.27-.09.52-.23.73-.4.21-.17.37-.39.49-.64s.18-.54.18-.87c0-.35-.06-.66-.17-.92-.12-.26-.28-.48-.48-.66-.21-.17-.45-.31-.73-.4-.28-.09-.59-.14-.93-.14h-1.82v4.19h1.86l-.01-.01ZM306.641 78c-.06.4-.16.78-.29 1.15-.13.37-.3.71-.5 1.04a3.442 3.442 0 0 1-1.68 1.41c-.36.14-.77.21-1.22.21-.45 0-.86-.07-1.22-.21a3.3 3.3 0 0 1-.96-.57 3.94 3.94 0 0 1-.73-.84c-.21-.32-.37-.67-.5-1.04s-.23-.75-.3-1.15c-.06-.4-.1-.79-.1-1.18v-1.25c0-.39.04-.78.1-1.18.06-.4.16-.78.3-1.15.13-.37.3-.72.5-1.04.2-.32.44-.61.72-.85.28-.24.6-.43.96-.57.36-.14.77-.21 1.22-.21.45 0 .86.07 1.22.21.36.14.69.33.97.57.28.24.52.52.72.84.2.32.37.67.51 1.04.13.37.23.75.29 1.16.06.4.1.79.1 1.18v1.25c0 .39-.04.78-.1 1.18h-.01Zm-1.32-3.26a6.17 6.17 0 0 0-.15-.84 5.32 5.32 0 0 0-.29-.79c-.12-.25-.27-.48-.45-.67a1.95 1.95 0 0 0-.64-.45c-.25-.11-.53-.17-.86-.17-.33 0-.6.06-.85.17-.25.11-.46.27-.64.46-.18.2-.33.42-.45.67-.12.25-.21.52-.28.79-.08.28-.13.56-.16.84-.03.28-.05.55-.06.81v1.26a7.344 7.344 0 0 0 .22 1.65c.07.28.17.55.29.8.12.25.27.48.45.67.18.2.39.35.64.47.24.12.53.17.85.17.32 0 .61-.06.86-.17.25-.11.46-.27.64-.47.18-.19.32-.41.44-.66.12-.25.21-.52.29-.8.07-.27.12-.55.15-.84.03-.29.04-.56.05-.82v-1.26c0-.26-.02-.53-.05-.81v-.01ZM310.43 78.82l-.88 2.83h-1.39l3.53-10.92h1.16l3.47 10.92h-1.38l-.86-2.83h-3.65Zm3.28-1.21-1.44-4.74-1.46 4.74h2.9ZM317.94 70.73h2.53c.43 0 .83.05 1.2.13.38.08.73.2 1.05.35.44.21.84.47 1.18.81.34.33.62.72.82 1.15.19.37.33.78.42 1.22.09.44.15.91.15 1.41v.8c0 .48-.05.94-.14 1.37-.09.43-.23.83-.4 1.19-.18.38-.41.72-.68 1.02-.28.3-.58.57-.92.78-.36.22-.77.4-1.22.52-.45.12-.94.18-1.47.19h-2.53V70.75l.01-.02Zm1.41 9.79h1.12c.4 0 .76-.05 1.09-.15.33-.09.62-.23.87-.41.27-.18.5-.4.7-.66.2-.26.35-.56.47-.88.1-.26.17-.55.23-.86.05-.31.08-.63.08-.96v-.82c0-.34-.03-.67-.09-.98-.06-.31-.13-.6-.24-.87a3.84 3.84 0 0 0-.54-.95c-.23-.28-.51-.51-.84-.69-.24-.13-.5-.23-.79-.3-.29-.07-.61-.11-.95-.12h-1.12v8.65h.01ZM330.598 76.19l1.92-5.46h1.73v10.92h-1.35v-4.36l.11-4.56-2.02 5.88h-.8l-1.85-5.72.11 4.4v4.36h-1.35V70.73h1.72l1.78 5.46ZM338.09 78.82l-.88 2.83h-1.39l3.53-10.92h1.16l3.47 10.92h-1.38l-.86-2.83h-3.65Zm3.28-1.21-1.44-4.74-1.46 4.74h2.9ZM347.257 81.65h-1.39V70.73h3.54c.49 0 .95.09 1.39.23.44.14.82.35 1.15.63.33.28.59.62.78 1.02.19.41.29.87.29 1.4 0 .53-.1.99-.29 1.39-.19.4-.45.74-.78 1.02s-.71.49-1.15.63c-.44.15-.9.22-1.39.23h-2.15v4.38-.01Zm2.15-5.52c.32 0 .62-.06.89-.15.27-.1.5-.24.71-.42.21-.18.36-.4.47-.66.11-.26.17-.55.17-.88 0-.33-.06-.63-.17-.89a2 2 0 0 0-.46-.67c-.2-.19-.44-.33-.71-.43-.27-.1-.57-.15-.89-.16h-2.15v4.26h2.15-.01ZM363.68 73.53h.95l2.69 6.57.17.5.17-.5 2.66-6.58h.94l-3.41 8.12h-.73l-3.43-8.12-.01.01ZM376.768 81.65v-9.78l-3.03 1.29v-.86l3.8-1.58h.13v10.92h-.9v.01ZM385.591 80.46c.13-.15.32-.22.56-.22.24 0 .43.07.57.22.14.15.21.33.21.54 0 .21-.07.38-.21.52-.14.14-.33.21-.57.21-.24 0-.42-.07-.56-.21a.708.708 0 0 1-.2-.52c0-.2.07-.39.2-.54ZM398.399 79.06c-.14.54-.35 1.01-.63 1.42-.28.4-.63.73-1.06.96-.43.23-.94.36-1.54.36-.49 0-.92-.08-1.31-.24a2.68 2.68 0 0 1-.99-.69c-.41-.42-.7-.94-.88-1.56a7.07 7.07 0 0 1-.27-1.98v-2.28c0-.62.07-1.2.21-1.75.14-.55.35-1.03.64-1.43.28-.41.64-.72 1.07-.95.43-.23.94-.35 1.52-.35.49 0 .93.08 1.32.25.39.17.72.39.99.69.39.4.68.92.86 1.55.18.63.28 1.29.28 1.99v2.28c0 .62-.07 1.19-.21 1.73Zm-.84-5.45a4.22 4.22 0 0 0-.29-.93c-.13-.28-.29-.52-.48-.72-.19-.2-.43-.35-.7-.46-.27-.11-.58-.16-.93-.16-.45 0-.83.08-1.13.25-.3.17-.56.41-.78.71-.21.3-.37.69-.48 1.15-.1.46-.15.94-.15 1.43v1.91c0 .2 0 .39.02.58.01.2.04.39.07.59l4.85-4.37v.02Zm.14 2.09c0-.16-.01-.36-.02-.58 0-.23-.03-.44-.05-.63l-4.84 4.36c.07.33.17.64.3.91.13.27.3.5.5.69.19.18.42.33.68.43.26.1.56.15.9.15.44 0 .82-.09 1.13-.27.31-.18.56-.42.75-.72.23-.33.39-.71.49-1.16.1-.45.15-.92.15-1.42v-1.77l.01.01ZM411.07 82.59l4.56-11.86h.84l-4.55 11.86h-.85ZM420.289 82.59l4.56-11.86h.84l-4.55 11.86h-.85ZM429.508 82.59l4.56-11.86h.84l-4.55 11.86h-.85Z" fill="#000"/><path d="M212.831 254.35c9.743 0 17.64-7.898 17.64-17.64s-7.897-17.64-17.64-17.64c-9.742 0-17.64 7.898-17.64 17.64s7.898 17.64 17.64 17.64Z" fill="#d9d9d9" stroke="#000" stroke-width=".5" stroke-miterlimit="10" class="Q1"/><path d="M212.731 238.88c-.1.53-.24 1.04-.43 1.52-.2.48-.45.93-.74 1.34-.29.41-.65.76-1.05 1.04l2.34 2.22-.77.73-2.58-2.43a4.682 4.682 0 0 1-1.4.22c-.56 0-1.06-.09-1.51-.26a4.01 4.01 0 0 1-1.2-.71c-.36-.3-.67-.65-.93-1.05s-.47-.83-.64-1.3c-.18-.46-.3-.93-.39-1.43-.09-.5-.12-.98-.13-1.47v-1.63c0-.48.05-.97.13-1.47s.21-.98.38-1.43c.17-.46.38-.9.64-1.3s.56-.76.92-1.06c.35-.29.75-.53 1.21-.7.45-.17.96-.26 1.52-.26s1.06.09 1.51.26c.45.17.86.41 1.21.7.35.3.66.65.92 1.06.26.41.47.84.64 1.29.17.46.3.94.38 1.44.08.5.13.99.14 1.47v1.63c0 .51-.06 1.04-.16 1.56l-.01.02Zm-1.06-4.39c-.06-.4-.14-.8-.25-1.19-.13-.38-.28-.73-.48-1.08a4.12 4.12 0 0 0-.69-.91c-.27-.25-.58-.45-.94-.6-.36-.15-.77-.23-1.23-.23-.46 0-.86.08-1.22.23-.36.15-.67.35-.94.61-.27.26-.5.56-.69.9-.19.34-.35.7-.47 1.09a8.056 8.056 0 0 0-.36 2.36v1.65a8.185 8.185 0 0 0 .36 2.36c.12.38.27.75.47 1.09.19.34.42.65.7.9.27.26.58.46.94.61.36.15.76.23 1.22.23.46 0 .87-.08 1.23-.23.36-.15.67-.35.95-.61.27-.26.5-.56.69-.9.19-.34.34-.71.46-1.1.12-.38.21-.78.26-1.18.05-.4.08-.8.09-1.18v-1.65c0-.38-.04-.78-.09-1.18l-.01.01ZM219.691 243.34v-12.25l-3.8 1.62v-1.08l4.77-1.97h.16v13.69h-1.13v-.01Z" fill="#000" class="Q1 text"/><defs><linearGradient id="a" x1="241.48" y1="248.35" x2="449.04" y2="248.35" gradientUnits="userSpaceOnUse"><stop offset=".04" stop-color="#F516FD"/><stop offset=".22" stop-color="#03BD1D"/><stop offset=".39" stop-color="#07B1CD"/><stop offset=".4" stop-color="#07B0D1"/><stop offset=".48" stop-color="#06B2C2"/><stop offset=".58" stop-color="#0367D3"/><stop offset=".71" stop-color="#002CE0"/><stop offset=".74" stop-color="#0016FD"/><stop offset=".86" stop-color="#07B0D2"/><animateTransform attributeName="gradientTransform" dur="4s" from="0 241.48 181.45" repeatCount="indefinite" to="360 449.04 315.25" type="rotate"/></linearGradient></defs></svg>